
<svg
  xmlns="http://www.w3.org/2000/svg"
  xmlSpace="preserve"
  viewBox="0 0 2.32 2.1"
  fill="#ff6d85"
>
  <path
    d="M2.06.56C2.05.54 2.05.52 2.05.5c.09-.07.16-.16.21-.26-.08.04-.17.07-.26.09.09-.06.16-.16.18-.28-.08.07-.18.11-.29.14a.449.449 0 0 0-.36-.11c-.26.02-.45.25-.43.51 0 .04.01.07.02.11C.72.71.36.56.1.29.06.36.05.45.06.53.07.7.17.84.3.91.22.91.15.9.08.87v.01c.02.23.2.4.42.43l-.12.03c-.03 0-.06 0-.09-.01.08.19.26.31.47.3-.15.14-.35.23-.57.25H.08C1 2.37 2.25 1.69 2.06.56z"
    style="fill-rule:nonzero;"
  />
</svg>
