<?xml version="1.0" encoding="UTF-8"?>
<!DOCTYPE svg PUBLIC "-//W3C//DTD SVG 1.1//EN" "http://www.w3.org/Graphics/SVG/1.1/DTD/svg11.dtd">
<!-- Creator: CorelDRAW 2021 (64 Bit) -->
<svg xmlns="http://www.w3.org/2000/svg" xml:space="preserve" width="887px" height="1552px" version="1.1" style="shape-rendering:geometricPrecision; text-rendering:geometricPrecision; image-rendering:optimizeQuality; fill-rule:evenodd; clip-rule:evenodd"
viewBox="0 0 113.55 198.76"
 xmlns:xlink="http://www.w3.org/1999/xlink"
 xmlns:xodm="http://www.corel.com/coreldraw/odm/2003">
 <defs>
  <style type="text/css">
   <![CDATA[
    .fil2 {fill:none}
    .fil0 {fill:#F0F0F0}
    .fil1 {fill:#FEC232;fill-rule:nonzero;fill-opacity:0.258824}
   ]]>
  </style>
   <clipPath id="id0">
    <path d="M0 0l113.55 0 0 198.76 -113.55 0 0 -198.76z"/>
   </clipPath>
 </defs>
 <g id="Camada_x0020_1">
  <metadata id="CorelCorpID_0Corel-Layer"/>
  <polygon class="fil0" points="0,0 113.55,0 113.55,198.76 0,198.76 "/>
  <g style="clip-path:url(#id0)">
   <g id="_1741188825728">
    <path id="_1" class="fil1" d="M104.58 121.21c-0.1,-1.17 -0.22,-2.33 -0.38,-3.48 4.93,-4.27 9.1,-9.42 12.24,-15.15 -4.65,2.57 -9.72,4.47 -15.12,5.6 5.27,-3.83 9.09,-9.49 10.56,-15.96 -4.95,3.54 -10.53,6.3 -16.56,8.05 -5.39,-4.82 -12.69,-7.48 -20.45,-6.8 -14.91,1.3 -25.93,14.44 -24.63,29.34 0.19,2.12 0.6,4.16 1.24,6.09 -22.53,0.84 -43.36,-8.16 -58.09,-23.33 -1.97,4.19 -2.9,8.94 -2.47,13.88 0.82,9.37 6.31,17.21 13.98,21.42 -4.45,0.25 -8.71,-0.6 -12.52,-2.31 0,0.11 0.01,0.23 0.02,0.35 1.15,13.07 11.4,23.16 23.96,24.56 -2.21,0.81 -4.56,1.35 -7.02,1.57 -1.74,0.15 -3.45,0.13 -5.12,-0.04 4.37,10.42 15.02,17.35 26.85,16.53 -8.6,8.05 -19.86,13.38 -32.5,14.49 -2.18,0.19 -4.34,0.25 -6.48,0.18 52.66,27.6 123.76,-10.97 112.49,-74.99z"/>
   </g>
  </g>
  <polygon class="fil2" points="0,0 113.55,0 113.55,198.76 0,198.76 "/>
 </g>
</svg>
