<?xml version="1.0" encoding="UTF-8"?>
<!DOCTYPE svg PUBLIC "-//W3C//DTD SVG 1.1//EN" "http://www.w3.org/Graphics/SVG/1.1/DTD/svg11.dtd">
<!-- Creator: CorelDRAW 2021 (64 Bit) -->
<svg xmlns="http://www.w3.org/2000/svg" xml:space="preserve" width="415px" height="200px" version="1.1" style="shape-rendering:geometricPrecision; text-rendering:geometricPrecision; image-rendering:optimizeQuality; fill-rule:evenodd; clip-rule:evenodd"
viewBox="0 0 50.96 24.55"
 xmlns:xlink="http://www.w3.org/1999/xlink"
 xmlns:xodm="http://www.corel.com/coreldraw/odm/2003">
 <defs>
  <style type="text/css">
   <![CDATA[
    .fil5 {fill:black;fill-rule:nonzero}
    .fil0 {fill:black;fill-rule:nonzero;fill-opacity:0.921569}
    .fil4 {fill:#1CCE93;fill-rule:nonzero;fill-opacity:0.921569}
    .fil1 {fill:#72A1FF;fill-rule:nonzero;fill-opacity:0.921569}
    .fil3 {fill:#FEC232;fill-rule:nonzero;fill-opacity:0.921569}
    .fil2 {fill:#FF6D85;fill-rule:nonzero;fill-opacity:0.921569}
   ]]>
  </style>
 </defs>
 <g id="Camada_x0020_1">
  <metadata id="CorelCorpID_0Corel-Layer"/>
  <g id="_1737266897584">
   <g>
    <path class="fil0" d="M6.79 10.59l1.16 0 0 0 0 0.06 0 0.06 0 0.06 -0.01 0.06 0 0.06 -0.01 0.06 -0.01 0.06 -0.01 0.06 -0.02 0.06 -0.01 0.06 -0.02 0.05 -0.01 0.06 -0.02 0.06 -0.02 0.05 -0.03 0.06 -0.02 0.05 -0.02 0.06 -0.03 0.05 -0.03 0.06 -0.03 0.05 -0.03 0.05 -0.03 0.05 -0.03 0.05 -0.04 0.05 -0.03 0.05 -0.04 0.05 -0.04 0.05 -0.03 0.05 -0.05 0.04 -0.04 0.05 -0.04 0.04 -0.04 0.05 -0.83 -0.83 0.03 -0.02 0.03 -0.03 0.02 -0.03 0.02 -0.03 0.03 -0.02 0.02 -0.03 0.02 -0.03 0.02 -0.03 0.02 -0.02 0.02 -0.03 0.01 -0.03 0.02 -0.03 0.01 -0.02 0.02 -0.03 0.01 -0.03 0.01 -0.03 0.01 -0.02 0.02 -0.03 0.01 -0.03 0 -0.02 0.01 -0.03 0.01 -0.03 0.01 -0.03 0 -0.03 0.01 -0.03 0 -0.02 0.01 -0.03 0 -0.03 0 -0.03 0.01 -0.03 0 -0.04 0 -0.03 0 0zm0 0c0,-0.32 0.26,-0.58 0.58,-0.58 0.32,0 0.58,0.26 0.58,0.58l-1.16 0zm-0.4 -1.1l0.94 -0.68 0 0 0.04 0.05 0.03 0.05 0.04 0.05 0.03 0.06 0.03 0.05 0.04 0.05 0.03 0.06 0.03 0.05 0.02 0.05 0.03 0.06 0.03 0.05 0.02 0.06 0.03 0.05 0.02 0.06 0.02 0.05 0.02 0.06 0.02 0.05 0.02 0.06 0.02 0.06 0.01 0.06 0.02 0.05 0.01 0.06 0.01 0.06 0.01 0.06 0.01 0.05 0.01 0.06 0.01 0.06 0 0.06 0.01 0.06 0 0.06 0 0.05 0 0.06 -1.16 0 0 -0.03 0 -0.03 -0.01 -0.04 0 -0.03 0 -0.03 -0.01 -0.04 0 -0.03 -0.01 -0.03 0 -0.04 -0.01 -0.03 -0.01 -0.03 0 -0.04 -0.01 -0.03 -0.01 -0.03 -0.01 -0.04 -0.02 -0.03 -0.01 -0.03 -0.01 -0.04 -0.02 -0.03 -0.01 -0.04 -0.02 -0.03 -0.01 -0.04 -0.02 -0.03 -0.02 -0.04 -0.02 -0.03 -0.02 -0.04 -0.02 -0.03 -0.02 -0.04 -0.03 -0.04 -0.02 -0.03 -0.03 -0.04 -0.02 -0.03 0 -0.01zm0 0.01c-0.19,-0.27 -0.13,-0.63 0.13,-0.82 0.26,-0.19 0.62,-0.13 0.81,0.13l-0.94 0.69zm-0.98 -0.82l0.52 -1.04 -0.03 -0.02 0.06 0.03 0.05 0.02 0.05 0.02 0.05 0.03 0.05 0.03 0.05 0.03 0.05 0.02 0.05 0.03 0.05 0.03 0.04 0.04 0.05 0.03 0.05 0.03 0.04 0.04 0.05 0.03 0.05 0.04 0.04 0.03 0.05 0.04 0.04 0.04 0.04 0.04 0.05 0.04 0.04 0.04 0.04 0.04 0.04 0.05 0.04 0.04 0.04 0.05 0.04 0.04 0.04 0.05 0.04 0.04 0.04 0.05 0.04 0.05 0.03 0.05 0.04 0.05 -0.94 0.68 -0.03 -0.03 -0.03 -0.04 -0.03 -0.03 -0.02 -0.04 -0.03 -0.03 -0.03 -0.04 -0.03 -0.03 -0.03 -0.03 -0.02 -0.03 -0.03 -0.03 -0.03 -0.03 -0.03 -0.03 -0.03 -0.02 -0.03 -0.03 -0.03 -0.03 -0.03 -0.02 -0.03 -0.03 -0.03 -0.02 -0.03 -0.02 -0.03 -0.02 -0.03 -0.02 -0.03 -0.03 -0.03 -0.02 -0.03 -0.01 -0.03 -0.02 -0.03 -0.02 -0.03 -0.02 -0.03 -0.01 -0.03 -0.02 -0.03 -0.02 -0.03 -0.01 -0.04 -0.01 -0.03 -0.02zm0.03 0.02c-0.29,-0.13 -0.43,-0.47 -0.3,-0.77 0.12,-0.3 0.47,-0.43 0.76,-0.31l-0.46 1.08zm-0.69 -0.28l0 -1.16 0 0 0.03 0 0.04 0 0.04 0 0.03 0.01 0.04 0 0.03 0.01 0.04 0 0.03 0.01 0.04 0.01 0.03 0.01 0.04 0 0.03 0.01 0.04 0.01 0.03 0.01 0.04 0.02 0.03 0.01 0.04 0.01 0.03 0.01 0.04 0.02 0.04 0.01 0.03 0.02 0.04 0.01 0.04 0.02 0.04 0.01 0.04 0.02 0.04 0.02 0.04 0.02 0.04 0.02 0.04 0.02 0.04 0.02 0.04 0.02 0.04 0.02 -0.52 1.04 -0.03 -0.02 -0.04 -0.01 -0.03 -0.02 -0.04 -0.02 -0.03 -0.01 -0.03 -0.02 -0.04 -0.01 -0.03 -0.02 -0.03 -0.01 -0.03 -0.01 -0.02 -0.01 -0.03 -0.01 -0.03 -0.01 -0.02 -0.01 -0.02 -0.01 -0.03 -0.01 -0.02 -0.01 -0.02 0 -0.02 -0.01 -0.02 0 -0.02 -0.01 -0.01 0 -0.02 -0.01 -0.01 0 -0.01 0 -0.01 0 -0.01 -0.01 -0.01 0 0 0 0 0 -0.01 0 0.01 0 0 0zm0 0c-0.33,0 -0.59,-0.26 -0.59,-0.58 0,-0.32 0.26,-0.58 0.59,-0.58l0 1.16zm0.26 0.19l-1.17 0 0 0 0 -0.06 0 -0.05 0.01 -0.05 0 -0.06 0 -0.05 0.01 -0.05 0 -0.05 0.01 -0.05 0.01 -0.05 0 -0.05 0.01 -0.04 0.01 -0.05 0.02 -0.05 0.01 -0.05 0.02 -0.04 0.02 -0.05 0.02 -0.05 0.02 -0.05 0.03 -0.05 0.03 -0.05 0.04 -0.04 0.04 -0.05 0.04 -0.04 0.05 -0.05 0.06 -0.04 0.05 -0.03 0.07 -0.03 0.06 -0.03 0.07 -0.02 0.06 -0.01 0.07 -0.01 0.07 0 0 1.16 0.02 0 0.03 0 0.03 -0.01 0.03 -0.01 0.03 -0.01 0.03 -0.01 0.03 -0.02 0.02 -0.02 0.02 -0.01 0.02 -0.02 0.01 -0.02 0.01 -0.01 0.01 -0.01 0 -0.01 0 0 0 0 0 0 0 0 0 0.01 0 0.01 -0.01 0.01 0 0.02 0 0.02 -0.01 0.02 0 0.03 0 0.02 -0.01 0.03 0 0.03 0 0.03 0 0.04 0 0.04 0 0.04 0 0zm0 0c0,0.32 -0.26,0.58 -0.58,0.58 -0.33,0 -0.59,-0.26 -0.59,-0.58l1.17 0zm0.73 2.29l-1.03 0.54 0 0 -0.05 -0.1 -0.05 -0.1 -0.05 -0.1 -0.05 -0.1 -0.04 -0.09 -0.05 -0.1 -0.04 -0.09 -0.04 -0.1 -0.04 -0.09 -0.04 -0.09 -0.03 -0.1 -0.04 -0.09 -0.03 -0.09 -0.03 -0.09 -0.03 -0.09 -0.03 -0.09 -0.03 -0.08 -0.02 -0.09 -0.03 -0.09 -0.02 -0.08 -0.02 -0.09 -0.02 -0.08 -0.01 -0.09 -0.02 -0.08 -0.01 -0.08 -0.01 -0.08 -0.01 -0.08 -0.01 -0.08 -0.01 -0.09 0 -0.07 -0.01 -0.08 0 -0.08 1.17 0 0 0.05 0 0.05 0 0.05 0.01 0.06 0 0.05 0.01 0.06 0.01 0.06 0.01 0.06 0.01 0.06 0.01 0.07 0.02 0.06 0.01 0.07 0.02 0.07 0.02 0.06 0.02 0.08 0.02 0.07 0.03 0.07 0.02 0.07 0.03 0.08 0.02 0.08 0.03 0.07 0.04 0.08 0.03 0.08 0.03 0.08 0.04 0.09 0.04 0.08 0.03 0.09 0.04 0.08 0.05 0.09 0.04 0.09 0.05 0.09 0.04 0.09 0 0zm0 0c0.15,0.29 0.04,0.64 -0.24,0.79 -0.29,0.15 -0.64,0.03 -0.79,-0.25l1.03 -0.54zm0.41 0.87l0 1.17 0 0 -0.08 -0.01 -0.08 -0.01 -0.08 -0.02 -0.06 -0.03 -0.07 -0.02 -0.05 -0.04 -0.06 -0.03 -0.04 -0.03 -0.05 -0.04 -0.04 -0.04 -0.05 -0.04 -0.04 -0.04 -0.03 -0.04 -0.04 -0.04 -0.04 -0.05 -0.04 -0.04 -0.03 -0.05 -0.04 -0.05 -0.04 -0.05 -0.03 -0.05 -0.04 -0.06 -0.03 -0.05 -0.04 -0.06 -0.04 -0.06 -0.03 -0.06 -0.04 -0.07 -0.04 -0.06 -0.04 -0.07 -0.04 -0.07 -0.03 -0.07 -0.04 -0.08 -0.04 -0.07 1.03 -0.54 0.04 0.07 0.04 0.07 0.03 0.06 0.03 0.06 0.04 0.06 0.03 0.06 0.03 0.06 0.03 0.05 0.03 0.04 0.03 0.05 0.03 0.04 0.02 0.04 0.03 0.04 0.03 0.04 0.02 0.03 0.02 0.03 0.02 0.02 0.02 0.03 0.02 0.02 0.01 0.01 0.02 0.02 0.01 0.01 0 0 0.01 0 0 0 -0.01 0 -0.01 -0.01 -0.02 0 -0.02 -0.01 -0.03 -0.01 -0.04 -0.01 -0.05 0 0 0zm0 0c0.33,0 0.59,0.26 0.59,0.58 0,0.33 -0.26,0.59 -0.59,0.59l0 -1.17zm0.23 -0.28l0.83 0.83 0 0 -0.03 0.03 -0.03 0.03 -0.03 0.03 -0.03 0.02 -0.03 0.03 -0.03 0.03 -0.03 0.03 -0.03 0.02 -0.03 0.03 -0.03 0.02 -0.02 0.02 -0.03 0.03 -0.03 0.02 -0.03 0.02 -0.03 0.02 -0.03 0.02 -0.02 0.02 -0.03 0.02 -0.03 0.02 -0.03 0.01 -0.03 0.02 -0.04 0.02 -0.03 0.01 -0.03 0.02 -0.04 0.02 -0.03 0.01 -0.04 0.01 -0.04 0.01 -0.05 0.01 -0.04 0.01 -0.05 0.01 -0.06 0 0 -1.17 -0.02 0 -0.03 0 -0.02 0.01 -0.02 0 -0.01 0.01 -0.01 0 0 0 -0.01 0 0 0 0 0 0 0 0.01 0 0.01 -0.01 0 0 0.02 -0.01 0.01 -0.01 0.01 0 0.01 -0.01 0.02 -0.02 0.01 -0.01 0.02 -0.01 0.02 -0.02 0.01 -0.01 0.02 -0.02 0.02 -0.01 0.02 -0.02 0.02 -0.02 0.03 -0.02 0.02 -0.02 0.02 -0.03 0.03 -0.02 0.02 -0.03 0 0zm0 0c0.23,-0.22 0.6,-0.22 0.83,0 0.22,0.23 0.22,0.6 0,0.83l-0.83 -0.83zm-2.18 -7.18l0 1.17 0 0 -0.03 0 -0.03 0 -0.02 0 -0.03 0 -0.03 0 -0.03 0 -0.03 0 -0.02 0.01 -0.03 0 -0.03 0 -0.02 0 -0.03 0.01 -0.03 0 -0.02 0 -0.03 0.01 -0.03 0 -0.02 0 -0.03 0.01 -0.03 0 -0.02 0.01 -0.03 0 -0.02 0.01 -0.03 0 -0.02 0.01 -0.03 0.01 -0.02 0 -0.03 0.01 -0.02 0.01 -0.03 0 -0.02 0.01 -0.02 0.01 -0.03 0.01 -0.37 -1.11 0.04 -0.01 0.04 -0.01 0.03 -0.01 0.04 -0.01 0.03 -0.01 0.04 -0.01 0.04 -0.01 0.03 -0.01 0.04 -0.01 0.04 -0.01 0.03 -0.01 0.04 -0.01 0.04 0 0.04 -0.01 0.04 -0.01 0.03 0 0.04 -0.01 0.04 0 0.04 -0.01 0.03 0 0.04 -0.01 0.04 0 0.04 0 0.04 -0.01 0.04 0 0.04 0 0.03 0 0.04 -0.01 0.04 0 0.04 0 0.04 0 0.04 0 0 0zm0 0c0.32,0 0.58,0.26 0.58,0.58 0,0.33 -0.26,0.59 -0.58,0.59l0 -1.17zm4.87 1.51l-0.65 0.97 0.01 0 -0.13 -0.08 -0.13 -0.08 -0.13 -0.08 -0.12 -0.07 -0.13 -0.07 -0.13 -0.07 -0.13 -0.06 -0.13 -0.07 -0.13 -0.06 -0.13 -0.06 -0.13 -0.05 -0.13 -0.05 -0.14 -0.05 -0.13 -0.05 -0.13 -0.04 -0.13 -0.05 -0.13 -0.04 -0.13 -0.03 -0.14 -0.04 -0.13 -0.03 -0.13 -0.03 -0.14 -0.03 -0.13 -0.02 -0.13 -0.02 -0.14 -0.02 -0.13 -0.02 -0.14 -0.01 -0.13 -0.01 -0.14 -0.01 -0.14 -0.01 -0.13 0 -0.14 0 0 -1.17 0.16 0 0.16 0.01 0.16 0 0.15 0.01 0.16 0.02 0.16 0.01 0.16 0.02 0.15 0.03 0.16 0.02 0.15 0.03 0.16 0.03 0.15 0.03 0.16 0.04 0.15 0.04 0.15 0.04 0.16 0.05 0.15 0.05 0.15 0.05 0.15 0.05 0.15 0.06 0.15 0.06 0.15 0.06 0.15 0.07 0.15 0.07 0.15 0.07 0.14 0.08 0.15 0.07 0.15 0.08 0.14 0.09 0.15 0.08 0.14 0.09 0.14 0.09 0.01 0.01zm-0.01 -0.01c0.28,0.18 0.35,0.54 0.18,0.81 -0.18,0.27 -0.54,0.35 -0.81,0.17l0.63 -0.98zm1.94 2.37l-1.04 0.53 0 0 -0.05 -0.08 -0.04 -0.09 -0.05 -0.08 -0.05 -0.09 -0.04 -0.08 -0.05 -0.08 -0.05 -0.07 -0.04 -0.08 -0.05 -0.07 -0.05 -0.07 -0.04 -0.07 -0.05 -0.07 -0.05 -0.07 -0.05 -0.06 -0.05 -0.06 -0.04 -0.07 -0.05 -0.05 -0.05 -0.06 -0.05 -0.06 -0.05 -0.05 -0.05 -0.05 -0.05 -0.05 -0.04 -0.05 -0.05 -0.05 -0.05 -0.04 -0.05 -0.05 -0.05 -0.04 -0.05 -0.04 -0.05 -0.04 -0.05 -0.03 -0.05 -0.04 -0.05 -0.03 0.65 -0.97 0.07 0.05 0.07 0.05 0.07 0.05 0.07 0.05 0.07 0.06 0.06 0.05 0.07 0.06 0.07 0.06 0.06 0.06 0.06 0.07 0.07 0.06 0.06 0.07 0.06 0.07 0.06 0.07 0.06 0.07 0.06 0.07 0.06 0.08 0.06 0.07 0.06 0.08 0.06 0.08 0.06 0.08 0.05 0.09 0.06 0.08 0.05 0.09 0.06 0.09 0.05 0.08 0.06 0.09 0.05 0.1 0.05 0.09 0.05 0.1 0.05 0.09 0.06 0.1 0 0zm0 0c0.14,0.29 0.03,0.64 -0.26,0.79 -0.28,0.14 -0.64,0.03 -0.78,-0.26l1.04 -0.53zm0.83 2.89l-1.17 0 0 0 0 -0.05 0 -0.06 0 -0.06 -0.01 -0.07 0 -0.06 -0.01 -0.06 -0.01 -0.06 -0.01 -0.07 -0.01 -0.07 -0.01 -0.06 -0.02 -0.07 -0.01 -0.07 -0.02 -0.07 -0.02 -0.07 -0.02 -0.08 -0.02 -0.07 -0.02 -0.07 -0.02 -0.08 -0.03 -0.08 -0.02 -0.07 -0.03 -0.08 -0.03 -0.08 -0.03 -0.08 -0.04 -0.08 -0.03 -0.09 -0.04 -0.08 -0.03 -0.08 -0.04 -0.09 -0.04 -0.08 -0.04 -0.09 -0.05 -0.09 -0.04 -0.09 1.04 -0.53 0.05 0.1 0.04 0.1 0.05 0.1 0.05 0.09 0.04 0.1 0.04 0.1 0.04 0.09 0.04 0.1 0.04 0.09 0.04 0.09 0.03 0.1 0.03 0.09 0.04 0.09 0.03 0.09 0.03 0.09 0.02 0.09 0.03 0.09 0.02 0.09 0.02 0.09 0.03 0.09 0.02 0.09 0.01 0.08 0.02 0.09 0.01 0.09 0.02 0.08 0.01 0.09 0.01 0.08 0 0.09 0.01 0.08 0 0.09 0.01 0.08 0 0.08 0 0zm0 0c0,0.33 -0.26,0.59 -0.58,0.59 -0.33,0 -0.59,-0.26 -0.59,-0.59l1.17 0zm-0.09 0.72l-1.12 -0.35 -0.01 0.06 0 -0.02 0.01 -0.01 0 -0.02 0 -0.01 0.01 -0.02 0 -0.02 0 -0.02 0 -0.01 0.01 -0.01 0 -0.02 0 -0.02 0 -0.01 0 -0.02 0.01 -0.01 0 -0.01 0 -0.02 0 -0.01 0 -0.01 0 -0.02 0.01 -0.01 0 -0.01 0 -0.01 0 -0.01 0 -0.02 0 -0.01 0 -0.01 0 -0.01 0 -0.01 0 -0.01 0 -0.01 0 -0.01 0 -0.01 1.17 0 0 0.02 0 0.02 0 0.02 0 0.02 0 0.02 0 0.02 -0.01 0.02 0 0.02 0 0.02 0 0.02 0 0.02 0 0.02 0 0.02 -0.01 0.02 0 0.02 0 0.02 0 0.02 -0.01 0.02 0 0.02 0 0.02 -0.01 0.02 0 0.02 0 0.02 -0.01 0.03 0 0.02 0 0.02 -0.01 0.02 0 0.02 0 0.02 -0.01 0.03 0 0.02 -0.01 0.02 -0.01 0.06zm0.01 -0.06c-0.06,0.32 -0.37,0.52 -0.68,0.46 -0.32,-0.06 -0.52,-0.37 -0.46,-0.69l1.14 0.23zm-2.26 2.99l-0.81 -0.83 0 0 0.11 -0.11 0.1 -0.1 0.11 -0.11 0.1 -0.1 0.09 -0.1 0.1 -0.1 0.09 -0.09 0.08 -0.1 0.09 -0.09 0.08 -0.09 0.08 -0.09 0.07 -0.09 0.08 -0.08 0.06 -0.08 0.07 -0.09 0.06 -0.07 0.06 -0.08 0.06 -0.08 0.05 -0.07 0.05 -0.07 0.05 -0.07 0.04 -0.07 0.04 -0.06 0.04 -0.06 0.03 -0.06 0.03 -0.06 0.03 -0.05 0.03 -0.05 0.02 -0.05 0.02 -0.05 0.01 -0.04 0.01 -0.04 1.12 0.35 -0.03 0.08 -0.03 0.08 -0.03 0.08 -0.04 0.08 -0.03 0.08 -0.04 0.08 -0.05 0.08 -0.05 0.08 -0.04 0.08 -0.06 0.08 -0.05 0.09 -0.06 0.08 -0.06 0.09 -0.06 0.09 -0.07 0.08 -0.07 0.09 -0.07 0.09 -0.07 0.09 -0.08 0.1 -0.08 0.09 -0.08 0.1 -0.09 0.1 -0.09 0.09 -0.09 0.1 -0.09 0.1 -0.1 0.11 -0.1 0.1 -0.1 0.11 -0.11 0.1 -0.1 0.11 -0.12 0.11 -0.11 0.11 0 0zm0 0c-0.23,0.23 -0.6,0.22 -0.82,-0.01 -0.23,-0.23 -0.22,-0.6 0.01,-0.82l0.81 0.83zm-2.86 1.93l0 -1.17 0 0 0 0 0 0 0.01 0 0.02 0 0.02 -0.01 0.03 -0.01 0.03 -0.01 0.04 -0.02 0.04 -0.02 0.05 -0.03 0.05 -0.02 0.05 -0.04 0.06 -0.03 0.06 -0.04 0.07 -0.05 0.07 -0.05 0.07 -0.05 0.07 -0.05 0.08 -0.06 0.08 -0.06 0.08 -0.07 0.08 -0.07 0.09 -0.08 0.09 -0.07 0.09 -0.08 0.1 -0.09 0.09 -0.09 0.1 -0.09 0.11 -0.09 0.1 -0.1 0.11 -0.1 0.11 -0.11 0.81 0.83 -0.11 0.12 -0.12 0.1 -0.11 0.11 -0.1 0.1 -0.11 0.1 -0.1 0.09 -0.1 0.09 -0.1 0.09 -0.1 0.08 -0.1 0.08 -0.09 0.08 -0.09 0.07 -0.09 0.08 -0.09 0.06 -0.09 0.07 -0.08 0.06 -0.09 0.06 -0.08 0.06 -0.08 0.05 -0.08 0.05 -0.07 0.04 -0.08 0.05 -0.08 0.04 -0.07 0.04 -0.08 0.03 -0.07 0.03 -0.08 0.03 -0.08 0.02 -0.08 0.02 -0.08 0.02 -0.09 0.01 -0.09 0 0 0zm0 0c-0.32,0 -0.58,-0.26 -0.58,-0.58 0,-0.32 0.26,-0.59 0.58,-0.59l0 1.17zm-0.21 1.53l-1.17 -0.06 0 -0.02 0.01 -0.13 0.02 -0.13 0.01 -0.13 0.01 -0.12 0.02 -0.12 0.01 -0.11 0.02 -0.12 0.02 -0.1 0.02 -0.11 0.02 -0.1 0.02 -0.1 0.03 -0.1 0.02 -0.09 0.03 -0.09 0.03 -0.09 0.03 -0.08 0.03 -0.08 0.04 -0.08 0.04 -0.08 0.04 -0.08 0.04 -0.07 0.06 -0.07 0.05 -0.07 0.06 -0.06 0.07 -0.07 0.07 -0.05 0.09 -0.06 0.08 -0.04 0.1 -0.04 0.09 -0.02 0.1 -0.02 0.1 -0.01 0 1.17 0.03 0 0.02 0 0.02 -0.01 0.02 -0.01 0.02 -0.01 0.01 0 0.01 -0.01 0 0 -0.01 0 0 0.01 -0.01 0.02 -0.02 0.02 -0.01 0.02 -0.02 0.04 -0.01 0.03 -0.02 0.05 -0.02 0.05 -0.02 0.05 -0.02 0.06 -0.01 0.07 -0.02 0.07 -0.02 0.08 -0.02 0.08 -0.01 0.08 -0.02 0.09 -0.01 0.1 -0.02 0.1 -0.01 0.1 -0.01 0.11 -0.01 0.11 -0.01 0.12 -0.01 0.12 0 -0.01zm0 0.01c-0.03,0.33 -0.31,0.57 -0.63,0.54 -0.32,-0.02 -0.56,-0.3 -0.54,-0.63l1.17 0.09zm-0.36 1.91l-1.06 -0.48 0 0 0.01 -0.02 0.01 -0.02 0.01 -0.03 0.01 -0.03 0.01 -0.03 0.01 -0.03 0.01 -0.03 0.01 -0.03 0.01 -0.04 0.01 -0.04 0.01 -0.03 0.01 -0.04 0.01 -0.05 0 -0.04 0.01 -0.05 0.01 -0.04 0.01 -0.05 0.01 -0.05 0.01 -0.05 0 -0.05 0.01 -0.06 0.01 -0.06 0 -0.05 0.01 -0.06 0.01 -0.06 0 -0.06 0.01 -0.07 0 -0.06 0.01 -0.07 0 -0.06 0.01 -0.07 0 -0.07 1.17 0.06 -0.01 0.08 0 0.07 -0.01 0.08 0 0.07 -0.01 0.07 -0.01 0.07 0 0.07 -0.01 0.07 -0.01 0.07 0 0.07 -0.01 0.06 -0.01 0.07 -0.01 0.06 -0.01 0.06 -0.01 0.06 -0.01 0.06 -0.01 0.06 -0.01 0.06 -0.01 0.06 -0.02 0.05 -0.01 0.06 -0.01 0.05 -0.02 0.05 -0.01 0.06 -0.01 0.05 -0.02 0.05 -0.02 0.05 -0.01 0.05 -0.02 0.04 -0.02 0.05 -0.02 0.05 -0.02 0.04 0 0zm0 0c-0.13,0.3 -0.48,0.43 -0.77,0.29 -0.29,-0.13 -0.42,-0.48 -0.29,-0.77l1.06 0.48zm-1.22 0.93l-0.19 -1.15 0.03 0 0.01 -0.01 0.02 0 0.02 0 0.01 -0.01 0.01 0 0.02 0 0.01 -0.01 0.01 0 0.01 -0.01 0.01 0 0.01 0 0.01 -0.01 0.01 0 0.01 -0.01 0 -0.01 0.01 0 0.01 -0.01 0.01 0 0.01 -0.01 0.01 -0.01 0 -0.01 0.01 -0.01 0.01 -0.01 0.01 -0.01 0.01 -0.01 0.01 -0.01 0 -0.02 0.01 -0.01 0.01 -0.02 0.01 -0.01 0.01 -0.02 0.01 -0.02 1.06 0.48 -0.02 0.05 -0.02 0.04 -0.03 0.05 -0.02 0.04 -0.03 0.05 -0.03 0.04 -0.03 0.04 -0.03 0.04 -0.03 0.04 -0.03 0.04 -0.04 0.04 -0.03 0.04 -0.04 0.03 -0.03 0.04 -0.04 0.03 -0.04 0.03 -0.05 0.03 -0.04 0.03 -0.04 0.03 -0.05 0.02 -0.04 0.03 -0.05 0.02 -0.05 0.02 -0.04 0.02 -0.05 0.02 -0.05 0.01 -0.05 0.02 -0.05 0.01 -0.05 0.01 -0.05 0.01 -0.05 0.01 -0.05 0 0.03 0zm-0.03 0c-0.32,0.04 -0.61,-0.19 -0.64,-0.51 -0.04,-0.32 0.19,-0.61 0.51,-0.64l0.13 1.15zm-0.58 0.07l0 -1.16 0 0 0 0 0 0 0.01 0 0 0 0 -0.01 0.01 0 0.01 0 0 0 0.02 0 0 0 0.01 0 0.01 0 0.02 0 0.01 0 0.01 0 0.01 -0.01 0.02 0 0.01 0 0.02 0 0.01 0 0.02 -0.01 0.02 0 0.02 0 0.01 0 0.02 -0.01 0.02 0 0.02 0 0.02 -0.01 0.02 0 0.02 0 0.03 -0.01 0.02 0 0.19 1.15 -0.02 0 -0.03 0.01 -0.02 0 -0.03 0.01 -0.02 0 -0.02 0 -0.02 0.01 -0.02 0 -0.03 0 -0.02 0.01 -0.02 0 -0.02 0 -0.02 0 -0.02 0.01 -0.01 0 -0.02 0 -0.02 0 -0.02 0.01 -0.02 0 -0.01 0 -0.02 0 -0.02 0 -0.01 0 -0.02 0.01 -0.01 0 -0.02 0 -0.01 0 -0.02 0 -0.02 0 -0.01 0 -0.02 0 -0.02 0 0 0zm0 0c-0.32,0 -0.58,-0.26 -0.58,-0.58 0,-0.32 0.26,-0.58 0.58,-0.58l0 1.16zm-1.63 -1.3l1.09 -0.42 0 0 0.02 0.05 0.02 0.04 0.01 0.04 0.02 0.04 0.02 0.04 0.02 0.03 0.02 0.03 0.02 0.03 0.01 0.03 0.02 0.02 0.02 0.03 0.02 0.02 0.01 0.02 0.02 0.01 0.02 0.02 0.01 0.01 0.02 0.02 0.01 0.01 0.02 0.01 0.01 0.01 0.01 0 0.02 0.01 0.01 0.01 0.02 0 0.01 0.01 0.02 0 0.01 0.01 0.02 0 0.02 0 0.02 0 0.02 0.01 0.02 0 0 1.16 -0.07 0 -0.06 0 -0.07 -0.01 -0.07 -0.01 -0.07 -0.01 -0.07 -0.02 -0.06 -0.02 -0.07 -0.02 -0.06 -0.03 -0.07 -0.02 -0.06 -0.04 -0.06 -0.03 -0.06 -0.04 -0.06 -0.03 -0.05 -0.05 -0.06 -0.04 -0.05 -0.05 -0.05 -0.04 -0.04 -0.05 -0.05 -0.06 -0.04 -0.05 -0.05 -0.05 -0.04 -0.06 -0.04 -0.06 -0.03 -0.06 -0.04 -0.06 -0.03 -0.06 -0.03 -0.06 -0.04 -0.07 -0.03 -0.07 -0.02 -0.06 -0.03 -0.07 0 0zm0 0c-0.11,-0.3 0.04,-0.64 0.34,-0.76 0.3,-0.11 0.64,0.04 0.75,0.34l-1.09 0.42zm-0.74 -3.91l1.16 -0.15 0 0 0.02 0.17 0.02 0.18 0.02 0.16 0.03 0.17 0.02 0.16 0.02 0.15 0.02 0.15 0.02 0.15 0.02 0.14 0.03 0.14 0.02 0.14 0.02 0.13 0.02 0.13 0.02 0.13 0.02 0.12 0.03 0.11 0.02 0.12 0.02 0.11 0.02 0.1 0.02 0.1 0.02 0.1 0.02 0.09 0.02 0.09 0.02 0.08 0.02 0.08 0.03 0.08 0.02 0.07 0.01 0.07 0.02 0.06 0.02 0.06 0.02 0.05 0.02 0.05 -1.09 0.42 -0.03 -0.07 -0.02 -0.08 -0.03 -0.07 -0.02 -0.08 -0.03 -0.09 -0.02 -0.08 -0.02 -0.09 -0.03 -0.09 -0.02 -0.1 -0.02 -0.1 -0.03 -0.1 -0.02 -0.1 -0.02 -0.11 -0.03 -0.12 -0.02 -0.11 -0.02 -0.12 -0.02 -0.12 -0.03 -0.13 -0.02 -0.13 -0.02 -0.14 -0.02 -0.13 -0.03 -0.14 -0.02 -0.15 -0.02 -0.15 -0.02 -0.15 -0.03 -0.16 -0.02 -0.15 -0.02 -0.17 -0.02 -0.16 -0.02 -0.17 -0.03 -0.18 -0.02 -0.18 0 0.01zm0 -0.01c-0.04,-0.32 0.19,-0.61 0.51,-0.65 0.32,-0.04 0.61,0.19 0.65,0.51l-1.16 0.14zm-1.28 -6.01l1.09 -0.41 0.01 0.03 0.06 0.18 0.05 0.17 0.06 0.18 0.05 0.18 0.05 0.18 0.05 0.19 0.05 0.18 0.05 0.18 0.05 0.19 0.04 0.19 0.05 0.19 0.04 0.19 0.05 0.19 0.04 0.19 0.05 0.19 0.04 0.2 0.04 0.19 0.04 0.2 0.04 0.2 0.04 0.2 0.04 0.2 0.03 0.2 0.04 0.2 0.04 0.21 0.03 0.2 0.03 0.21 0.04 0.21 0.03 0.21 0.03 0.21 0.03 0.21 0.03 0.21 0.03 0.22 -1.16 0.15 -0.03 -0.21 -0.02 -0.21 -0.03 -0.2 -0.03 -0.21 -0.04 -0.2 -0.03 -0.21 -0.03 -0.2 -0.03 -0.2 -0.04 -0.2 -0.03 -0.19 -0.04 -0.2 -0.04 -0.19 -0.03 -0.2 -0.04 -0.19 -0.04 -0.19 -0.04 -0.19 -0.04 -0.19 -0.04 -0.19 -0.05 -0.18 -0.04 -0.19 -0.04 -0.18 -0.05 -0.18 -0.04 -0.18 -0.05 -0.18 -0.05 -0.18 -0.05 -0.18 -0.04 -0.17 -0.05 -0.18 -0.05 -0.17 -0.05 -0.17 -0.06 -0.17 -0.05 -0.17 0.01 0.03zm-0.01 -0.03c-0.1,-0.31 0.08,-0.64 0.38,-0.73 0.31,-0.1 0.64,0.07 0.73,0.38l-1.11 0.35zm-0.57 -2.13l1.17 0 0 0 0 0.01 0 0.02 0 0.02 0 0.02 0 0.03 0.01 0.03 0 0.03 0.01 0.04 0.01 0.03 0.01 0.05 0.01 0.04 0.01 0.05 0.01 0.04 0.01 0.05 0.02 0.06 0.01 0.05 0.02 0.06 0.01 0.06 0.02 0.06 0.02 0.07 0.02 0.06 0.03 0.07 0.02 0.07 0.02 0.08 0.03 0.07 0.02 0.08 0.03 0.08 0.03 0.08 0.03 0.08 0.03 0.09 0.03 0.08 0.03 0.09 -1.09 0.41 -0.03 -0.1 -0.04 -0.09 -0.03 -0.09 -0.03 -0.08 -0.03 -0.09 -0.03 -0.08 -0.03 -0.09 -0.02 -0.08 -0.03 -0.07 -0.02 -0.08 -0.03 -0.08 -0.02 -0.07 -0.02 -0.07 -0.02 -0.07 -0.02 -0.07 -0.02 -0.06 -0.02 -0.07 -0.02 -0.06 -0.01 -0.06 -0.02 -0.06 -0.01 -0.06 -0.01 -0.06 -0.02 -0.05 -0.01 -0.06 -0.01 -0.05 0 -0.06 -0.01 -0.05 -0.01 -0.05 0 -0.05 -0.01 -0.05 0 -0.05 0 -0.05 0 0zm0 0c0,-0.32 0.26,-0.58 0.58,-0.58 0.33,0 0.59,0.26 0.59,0.58l-1.17 0zm0.81 -1.66l0.83 0.82 0.02 -0.02 -0.03 0.04 -0.04 0.04 -0.03 0.04 -0.03 0.04 -0.03 0.03 -0.03 0.04 -0.02 0.04 -0.03 0.03 -0.02 0.04 -0.03 0.03 -0.02 0.04 -0.02 0.03 -0.02 0.03 -0.02 0.03 -0.01 0.03 -0.02 0.03 -0.01 0.03 -0.01 0.02 -0.02 0.03 -0.01 0.02 -0.01 0.03 0 0.02 -0.01 0.02 -0.01 0.02 0 0.02 0 0.01 -0.01 0.02 0 0.02 0 0.01 0 0.01 0 0.01 0 0.01 -1.17 0 0 -0.05 0 -0.06 0.01 -0.05 0.01 -0.06 0.01 -0.05 0.01 -0.05 0.01 -0.06 0.01 -0.05 0.02 -0.05 0.01 -0.05 0.02 -0.05 0.02 -0.05 0.02 -0.05 0.03 -0.05 0.02 -0.05 0.02 -0.05 0.03 -0.05 0.03 -0.05 0.03 -0.05 0.03 -0.05 0.03 -0.05 0.03 -0.05 0.03 -0.05 0.04 -0.05 0.03 -0.05 0.04 -0.05 0.04 -0.05 0.04 -0.05 0.04 -0.05 0.04 -0.05 0.04 -0.05 0.04 -0.05 0.03 -0.03zm-0.03 0.03c0.21,-0.24 0.58,-0.27 0.83,-0.06 0.24,0.21 0.26,0.58 0.05,0.83l-0.88 -0.77zm2.21 -1.58l0.37 1.11 0.01 -0.01 -0.04 0.02 -0.04 0.01 -0.04 0.02 -0.05 0.02 -0.04 0.02 -0.04 0.02 -0.05 0.03 -0.05 0.02 -0.05 0.03 -0.04 0.03 -0.05 0.03 -0.05 0.03 -0.06 0.03 -0.05 0.04 -0.05 0.03 -0.06 0.04 -0.05 0.04 -0.06 0.05 -0.06 0.04 -0.05 0.04 -0.06 0.05 -0.06 0.05 -0.06 0.05 -0.06 0.05 -0.06 0.06 -0.07 0.05 -0.06 0.06 -0.06 0.06 -0.07 0.06 -0.06 0.06 -0.07 0.07 -0.06 0.06 -0.83 -0.82 0.07 -0.07 0.08 -0.07 0.07 -0.07 0.07 -0.07 0.07 -0.07 0.07 -0.06 0.07 -0.06 0.07 -0.07 0.07 -0.06 0.07 -0.05 0.07 -0.06 0.07 -0.06 0.07 -0.05 0.07 -0.05 0.06 -0.05 0.07 -0.05 0.07 -0.05 0.06 -0.05 0.07 -0.04 0.07 -0.04 0.06 -0.05 0.07 -0.04 0.07 -0.03 0.06 -0.04 0.07 -0.04 0.06 -0.03 0.07 -0.03 0.06 -0.03 0.07 -0.03 0.06 -0.03 0.07 -0.02 0.07 -0.03 0 0zm0 0c0.3,-0.1 0.63,0.06 0.74,0.36 0.1,0.31 -0.06,0.64 -0.36,0.74l-0.38 -1.1z"/>
    <path id="_1" class="fil1" d="M6.79 11.91c0.39,-0.39 0.58,-0.83 0.58,-1.32 0,-0.49 -0.17,-0.97 -0.51,-1.44 -0.34,-0.47 -0.74,-0.8 -1.19,-0.99 -0.42,-0.21 -0.73,-0.32 -0.92,-0.32 -0.22,0 -0.32,0.26 -0.32,0.77 0,0.68 0.26,1.53 0.8,2.56 0.4,0.79 0.71,1.18 0.92,1.18 0.13,0 0.35,-0.15 0.64,-0.44zm-3.61 -6.86c0.32,-0.1 0.66,-0.16 1.02,-0.16 1.58,0 3.1,0.47 4.55,1.41 0.64,0.43 1.21,1.14 1.73,2.15 0.51,1 0.77,1.88 0.77,2.62 0,0.15 -0.03,0.33 -0.07,0.55 -0.19,0.62 -0.89,1.51 -2.1,2.69 -1.2,1.17 -2.02,1.76 -2.45,1.76 -0.42,0 -0.69,0.69 -0.8,2.08 -0.04,0.79 -0.14,1.36 -0.3,1.71 -0.16,0.35 -0.42,0.55 -0.78,0.59 -0.26,0.05 -0.43,0.07 -0.52,0.07 -0.49,0 -0.85,-0.31 -1.09,-0.93 -0.23,-0.62 -0.47,-1.88 -0.7,-3.78 -0.3,-2.26 -0.74,-4.31 -1.31,-6.15 -0.37,-0.98 -0.55,-1.63 -0.55,-1.95 0,-0.34 0.22,-0.76 0.64,-1.25 0.75,-0.74 1.4,-1.21 1.96,-1.41z"/>
   </g>
   <g>
    <path class="fil0" d="M16.44 0l0 1.17 0 0 -0.06 0 -0.06 0 -0.06 0 -0.06 0 -0.05 0 -0.06 0 -0.05 0.01 -0.06 0 -0.05 0 -0.05 0.01 -0.05 0 -0.05 0.01 -0.05 0 -0.05 0.01 -0.05 0.01 -0.04 0 -0.05 0.01 -0.04 0.01 -0.04 0.01 -0.04 0 -0.04 0.01 -0.04 0.01 -0.04 0.01 -0.04 0.01 -0.04 0.01 -0.03 0.01 -0.03 0.01 -0.04 0.01 -0.03 0.01 -0.03 0.01 -0.03 0.02 -0.03 0.01 -0.45 -1.08 0.05 -0.02 0.05 -0.02 0.05 -0.02 0.05 -0.01 0.05 -0.02 0.05 -0.02 0.06 -0.01 0.05 -0.02 0.05 -0.01 0.06 -0.01 0.05 -0.02 0.06 -0.01 0.06 -0.01 0.05 -0.01 0.06 -0.01 0.06 -0.01 0.06 -0.01 0.06 -0.01 0.06 0 0.06 -0.01 0.06 -0.01 0.07 0 0.06 -0.01 0.06 0 0.07 -0.01 0.06 0 0.07 0 0.07 -0.01 0.07 0 0.06 0 0.07 0 0.07 0 0 0zm0 0c0.33,0 0.59,0.26 0.59,0.58 0,0.33 -0.26,0.59 -0.59,0.59l0 -1.17zm3.82 1.01l-0.78 0.87 0.01 0.01 -0.05 -0.04 -0.05 -0.04 -0.05 -0.03 -0.06 -0.04 -0.06 -0.04 -0.06 -0.03 -0.07 -0.04 -0.07 -0.03 -0.07 -0.04 -0.08 -0.03 -0.07 -0.03 -0.09 -0.03 -0.08 -0.03 -0.09 -0.02 -0.09 -0.03 -0.09 -0.03 -0.1 -0.02 -0.1 -0.02 -0.1 -0.02 -0.11 -0.02 -0.11 -0.02 -0.11 -0.01 -0.11 -0.02 -0.12 -0.01 -0.12 -0.01 -0.13 -0.01 -0.13 -0.01 -0.13 -0.01 -0.13 -0.01 -0.14 0 -0.13 0 -0.15 0 0 -1.17 0.16 0 0.15 0 0.15 0.01 0.15 0 0.15 0.01 0.14 0.01 0.14 0.01 0.14 0.02 0.14 0.01 0.13 0.02 0.13 0.02 0.13 0.02 0.13 0.02 0.12 0.03 0.12 0.02 0.12 0.03 0.12 0.03 0.12 0.04 0.11 0.03 0.11 0.04 0.11 0.04 0.1 0.04 0.11 0.05 0.1 0.04 0.1 0.05 0.1 0.05 0.09 0.06 0.09 0.05 0.09 0.06 0.09 0.06 0.08 0.07 0.09 0.06 0.01 0.01zm-0.01 -0.01c0.24,0.21 0.27,0.58 0.07,0.82 -0.21,0.25 -0.58,0.28 -0.83,0.07l0.76 -0.89zm0.84 1.89l-1.16 0 0 0 0 -0.04 -0.01 -0.04 0 -0.04 0 -0.04 0 -0.03 -0.01 -0.04 -0.01 -0.04 0 -0.03 -0.01 -0.03 -0.01 -0.04 -0.01 -0.03 -0.01 -0.03 -0.01 -0.03 -0.01 -0.04 -0.01 -0.03 -0.01 -0.03 -0.02 -0.03 -0.01 -0.03 -0.02 -0.03 -0.01 -0.02 -0.02 -0.03 -0.02 -0.03 -0.02 -0.03 -0.02 -0.03 -0.02 -0.03 -0.02 -0.02 -0.03 -0.03 -0.02 -0.03 -0.03 -0.03 -0.02 -0.03 -0.03 -0.02 -0.03 -0.03 0.78 -0.87 0.05 0.05 0.05 0.05 0.04 0.04 0.05 0.05 0.04 0.05 0.05 0.05 0.04 0.05 0.04 0.06 0.04 0.05 0.03 0.05 0.04 0.06 0.03 0.06 0.04 0.05 0.03 0.06 0.03 0.06 0.02 0.06 0.03 0.06 0.02 0.06 0.02 0.06 0.03 0.06 0.01 0.07 0.02 0.06 0.02 0.06 0.01 0.07 0.01 0.06 0.01 0.07 0.01 0.06 0.01 0.07 0.01 0.07 0 0.06 0 0.07 0 0.07 0 0zm0 0c0,0.32 -0.26,0.58 -0.58,0.58 -0.32,0 -0.58,-0.26 -0.58,-0.58l1.16 0zm-0.03 0.24l-1.13 -0.29 0 0 0 0 0 0 0 -0.01 0 0.01 0 -0.01 0 0.01 0 -0.01 0 0 0 0 0 0.01 0 -0.01 0 0 0 0 0 0 0 0.01 0 -0.01 0 0 0 0 0 0.02 0 -0.01 0 0 0 0.01 0 -0.01 0 0 0 0.01 0 0.02 0 -0.01 0 0 0 0 0 0.01 0 0.02 0 0 1.16 0 0 0 0 0.02 0 0.02 0 0 0 0.01 0 0 0 0.02 0 0.01 0 0.01 0 -0.01 0 0.02 0 0 0 0 -0.01 0.02 0 0.01 0 0 0 0.01 0 0.01 0 0 0 0.02 0 0 -0.01 0 0 0.01 0 0.01 0 0.01 0 0 0 0.01 0 0 -0.01 0.01 0 0 0 0.01 0 0.01 0 0zm0 0c-0.08,0.31 -0.4,0.5 -0.71,0.42 -0.31,-0.08 -0.5,-0.4 -0.42,-0.71l1.13 0.29zm-0.01 0.05l-1.15 -0.2 -0.01 0.1 0 0 0 -0.02 0.01 -0.02 0 -0.01 0 0 0 0 0 -0.02 0 -0.01 0 -0.01 0 0 0 -0.01 0 0 0 -0.01 0 -0.01 0.01 -0.01 0 -0.01 0 0 0 -0.01 0 0 0 -0.02 0 0 0 0 0.01 -0.01 0 0 0 -0.02 0 0 0 0 0 -0.01 0 -0.01 0 0 0.01 -0.01 0 -0.01 1.13 0.29 0 -0.01 0 0.01 0 0.01 0 -0.01 0 0 0 0 0 0.01 0 -0.01 0 0.01 0 -0.01 0 0.01 0 0 0 0 0 0 0 -0.01 0 0.01 0 0 0 0 0 -0.01 0 0 0 0 0 -0.01 0 0.01 0 0 0 -0.01 0 -0.02 0 0.01 0 0 0 0 0 -0.01 0 -0.02 0 0 -0.01 0.1zm0.01 -0.1c0,0.32 -0.26,0.58 -0.58,0.58 -0.32,0 -0.59,-0.26 -0.59,-0.58l1.17 0zm-0.63 1.24l-0.64 -0.98 0 0 0 0.01 0 0 -0.01 0 0 0 0 0 0 0 0 0 0.01 0 0 0 0 -0.01 0 0 0.01 -0.01 0 0 0 -0.01 0.01 -0.01 0 -0.01 0.01 -0.01 0 -0.01 0.01 -0.02 0.01 -0.01 0 -0.02 0.01 -0.01 0 -0.02 0.01 -0.02 0 -0.02 0.01 -0.02 0.01 -0.02 0 -0.03 0.01 -0.02 0 -0.03 0.01 -0.03 0 -0.03 1.15 0.2 0 0.04 -0.01 0.04 -0.01 0.04 -0.01 0.05 -0.01 0.04 -0.01 0.04 -0.01 0.04 -0.01 0.04 -0.01 0.04 -0.02 0.04 -0.01 0.04 -0.01 0.03 -0.02 0.04 -0.01 0.04 -0.02 0.04 -0.02 0.03 -0.02 0.04 -0.02 0.04 -0.02 0.03 -0.02 0.04 -0.02 0.03 -0.02 0.04 -0.03 0.03 -0.03 0.03 -0.02 0.03 -0.03 0.03 -0.03 0.04 -0.03 0.03 -0.04 0.02 -0.03 0.03 -0.04 0.03 -0.03 0.02 0 0zm0 0c-0.27,0.18 -0.64,0.1 -0.81,-0.17 -0.18,-0.27 -0.1,-0.63 0.17,-0.81l0.64 0.98zm-1.36 0.27l0 -1.16 0 0 0.04 0 0.04 0 0.05 -0.01 0.04 0 0.03 0 0.04 0 0.04 0 0.03 0 0.04 -0.01 0.03 0 0.03 0 0.03 -0.01 0.03 0 0.03 0 0.02 -0.01 0.03 0 0.02 0 0.02 -0.01 0.02 0 0.02 -0.01 0.02 0 0.01 -0.01 0.02 0 0.01 0 0.01 -0.01 0.01 0 0 0 0.01 -0.01 0 0 0 0 0 0 0 0 0.64 0.98 -0.04 0.03 -0.04 0.02 -0.03 0.02 -0.04 0.01 -0.04 0.02 -0.04 0.02 -0.03 0.01 -0.04 0.01 -0.04 0.02 -0.04 0.01 -0.04 0.01 -0.04 0.01 -0.04 0.01 -0.04 0.01 -0.04 0 -0.04 0.01 -0.04 0.01 -0.04 0 -0.05 0.01 -0.04 0 -0.04 0.01 -0.05 0 -0.04 0.01 -0.05 0 -0.04 0 -0.05 0.01 -0.05 0 -0.05 0 -0.05 0 -0.05 0 -0.05 0 -0.05 0 0 0zm0 0c-0.32,0 -0.58,-0.26 -0.58,-0.58 0,-0.32 0.26,-0.58 0.58,-0.58l0 1.16zm-0.98 -0.04l0.16 -1.15 -0.02 0 0.02 0 0.01 0 0.03 0 0.02 0 0.02 0 0.02 0.01 0.02 0 0.03 0 0.02 0 0.02 0 0.03 0 0.02 0 0.03 0.01 0.02 0 0.03 0 0.02 0 0.03 0 0.03 0 0.02 0 0.03 0 0.03 0 0.03 0 0.03 0 0.03 0 0.03 0 0.03 0 0.03 0.01 0.03 0 0.03 0 0.03 0 0.04 0 0.03 0 0 1.16 -0.04 0 -0.03 0 -0.03 0 -0.04 0 -0.03 0 -0.04 0 -0.03 0 -0.03 0 -0.03 0 -0.03 0 -0.04 0 -0.03 0 -0.03 0 -0.03 0 -0.03 -0.01 -0.03 0 -0.03 0 -0.03 0 -0.02 0 -0.03 0 -0.03 0 -0.03 0 -0.03 -0.01 -0.02 0 -0.03 0 -0.03 0 -0.02 0 -0.03 0 -0.03 -0.01 -0.02 0 -0.03 0 -0.02 0 -0.03 -0.01zm0.03 0.01c-0.32,-0.03 -0.56,-0.31 -0.53,-0.64 0.03,-0.32 0.31,-0.55 0.64,-0.52l-0.11 1.16zm-0.62 -0.03l0 -1.17 0 0 0.03 0 0.03 0 0.03 0 0.02 0 0.03 0 0.03 0 0.03 0 0.02 0 0.03 0 0.02 0.01 0.03 0 0.03 0 0.02 0 0.02 0 0.03 0 0.02 0 0.02 0 0.02 0 0.03 0 0.02 0.01 0.02 0 0.02 0 0.02 0 0.03 0 0.02 0 0.02 0.01 0.02 0 0.02 0 0.02 0 0.01 0 0.03 0.01 0.01 0 -0.16 1.15 -0.01 0 -0.01 0 -0.01 0 -0.01 0 -0.01 0 -0.02 0 -0.01 0 -0.01 -0.01 -0.02 0 -0.01 0 -0.02 0 -0.01 0 -0.02 0 -0.02 0 -0.02 0 -0.02 0 -0.01 -0.01 -0.02 0 -0.02 0 -0.03 0 -0.01 0 -0.03 0 -0.02 0 -0.02 0 -0.02 0 -0.03 0 -0.02 0 -0.03 0 -0.02 0 -0.03 0 -0.02 0 -0.03 0 0 0zm0 0c-0.32,0 -0.58,-0.26 -0.58,-0.58 0,-0.33 0.26,-0.59 0.58,-0.59l0 1.17zm-1.78 0.37l-0.63 -0.98 0 0 0.06 -0.04 0.06 -0.03 0.06 -0.04 0.06 -0.03 0.06 -0.03 0.07 -0.03 0.06 -0.03 0.07 -0.03 0.07 -0.02 0.07 -0.03 0.07 -0.02 0.07 -0.02 0.07 -0.02 0.07 -0.02 0.08 -0.02 0.07 -0.02 0.08 -0.01 0.07 -0.02 0.08 -0.01 0.08 -0.02 0.08 -0.01 0.08 -0.01 0.08 -0.01 0.09 -0.01 0.08 0 0.09 -0.01 0.08 -0.01 0.09 0 0.09 0 0.09 -0.01 0.09 0 0.09 0 0 1.17 -0.08 0 -0.08 0 -0.07 0 -0.08 0 -0.07 0.01 -0.07 0 -0.07 0.01 -0.07 0 -0.07 0.01 -0.06 0.01 -0.07 0.01 -0.06 0.01 -0.06 0.01 -0.06 0.01 -0.06 0.01 -0.06 0.01 -0.05 0.01 -0.06 0.02 -0.05 0.01 -0.05 0.02 -0.05 0.01 -0.04 0.02 -0.05 0.01 -0.04 0.02 -0.04 0.02 -0.05 0.01 -0.04 0.02 -0.03 0.02 -0.04 0.02 -0.04 0.02 -0.03 0.02 -0.03 0.02 0 0zm0 0c-0.27,0.17 -0.63,0.1 -0.81,-0.17 -0.17,-0.28 -0.09,-0.64 0.18,-0.81l0.63 0.98zm-0.45 0.77l-1.17 0 0 0 0 -0.06 0 -0.07 0.01 -0.06 0 -0.07 0.01 -0.06 0.01 -0.07 0.02 -0.06 0.01 -0.07 0.02 -0.06 0.02 -0.06 0.02 -0.07 0.02 -0.06 0.03 -0.06 0.03 -0.06 0.02 -0.05 0.04 -0.06 0.03 -0.06 0.03 -0.05 0.04 -0.06 0.04 -0.05 0.04 -0.05 0.04 -0.05 0.05 -0.05 0.04 -0.05 0.05 -0.04 0.05 -0.05 0.05 -0.04 0.05 -0.04 0.05 -0.04 0.05 -0.04 0.06 -0.04 0.06 -0.04 0.63 0.98 -0.03 0.02 -0.03 0.02 -0.03 0.02 -0.03 0.03 -0.03 0.02 -0.02 0.02 -0.03 0.02 -0.02 0.02 -0.02 0.02 -0.02 0.03 -0.02 0.02 -0.01 0.02 -0.02 0.02 -0.01 0.02 -0.02 0.02 -0.01 0.03 -0.01 0.02 -0.01 0.02 -0.02 0.02 -0.01 0.03 0 0.02 -0.01 0.03 -0.01 0.02 -0.01 0.03 0 0.02 -0.01 0.03 0 0.03 -0.01 0.03 0 0.03 0 0.03 0 0.03 0 0.03 0 0zm0 0c0,0.33 -0.27,0.59 -0.59,0.59 -0.32,0 -0.58,-0.26 -0.58,-0.59l1.17 0zm0.92 1.76l-0.87 0.78 0 0 -0.07 -0.08 -0.07 -0.08 -0.06 -0.08 -0.07 -0.08 -0.06 -0.07 -0.06 -0.08 -0.06 -0.08 -0.06 -0.08 -0.05 -0.08 -0.06 -0.08 -0.05 -0.08 -0.05 -0.07 -0.04 -0.08 -0.05 -0.08 -0.04 -0.08 -0.04 -0.08 -0.04 -0.08 -0.04 -0.08 -0.03 -0.08 -0.03 -0.07 -0.03 -0.08 -0.03 -0.08 -0.02 -0.08 -0.02 -0.08 -0.02 -0.08 -0.02 -0.08 -0.02 -0.08 -0.01 -0.08 -0.01 -0.08 -0.01 -0.08 0 -0.09 0 -0.08 1.17 0 0 0.04 0 0.04 0 0.05 0.01 0.04 0 0.04 0.01 0.05 0.01 0.04 0.01 0.05 0.02 0.05 0.01 0.05 0.02 0.05 0.02 0.05 0.02 0.05 0.02 0.05 0.03 0.05 0.02 0.06 0.03 0.06 0.03 0.05 0.03 0.06 0.04 0.06 0.04 0.06 0.04 0.06 0.04 0.06 0.04 0.06 0.05 0.07 0.04 0.06 0.05 0.06 0.06 0.07 0.05 0.07 0.06 0.06 0.06 0.07 0.06 0.07 0 0zm0 0c0.21,0.24 0.2,0.61 -0.04,0.82 -0.24,0.22 -0.61,0.2 -0.83,-0.04l0.87 -0.78zm2.88 2.07l-0.51 1.05 -0.01 0 -0.13 -0.07 -0.13 -0.07 -0.12 -0.06 -0.12 -0.07 -0.12 -0.07 -0.12 -0.07 -0.12 -0.07 -0.12 -0.06 -0.11 -0.07 -0.11 -0.07 -0.11 -0.07 -0.11 -0.08 -0.11 -0.07 -0.1 -0.07 -0.1 -0.07 -0.11 -0.07 -0.1 -0.08 -0.09 -0.07 -0.1 -0.07 -0.1 -0.08 -0.09 -0.07 -0.09 -0.08 -0.09 -0.07 -0.09 -0.08 -0.08 -0.08 -0.09 -0.07 -0.08 -0.08 -0.08 -0.08 -0.08 -0.08 -0.08 -0.08 -0.07 -0.08 -0.08 -0.08 0.87 -0.78 0.06 0.07 0.06 0.06 0.07 0.07 0.07 0.07 0.07 0.06 0.07 0.07 0.07 0.07 0.07 0.06 0.08 0.07 0.08 0.07 0.08 0.06 0.08 0.07 0.08 0.06 0.09 0.07 0.09 0.07 0.09 0.06 0.09 0.07 0.09 0.06 0.1 0.07 0.09 0.06 0.1 0.07 0.1 0.06 0.11 0.06 0.1 0.07 0.11 0.06 0.1 0.06 0.11 0.07 0.11 0.06 0.12 0.06 0.11 0.07 0.12 0.06 0.12 0.06 -0.01 -0.01zm0.01 0.01c0.29,0.15 0.4,0.5 0.25,0.79 -0.15,0.28 -0.5,0.39 -0.78,0.25l0.53 -1.04zm2.45 1.74l-0.86 0.79 0.01 0 -0.05 -0.05 -0.05 -0.05 -0.05 -0.05 -0.05 -0.05 -0.06 -0.05 -0.05 -0.05 -0.05 -0.05 -0.06 -0.05 -0.06 -0.05 -0.06 -0.04 -0.06 -0.05 -0.06 -0.05 -0.06 -0.05 -0.06 -0.04 -0.07 -0.05 -0.06 -0.05 -0.07 -0.05 -0.07 -0.04 -0.06 -0.05 -0.08 -0.04 -0.07 -0.05 -0.07 -0.04 -0.07 -0.05 -0.08 -0.04 -0.08 -0.05 -0.07 -0.04 -0.08 -0.04 -0.08 -0.05 -0.08 -0.04 -0.09 -0.04 -0.08 -0.05 -0.08 -0.04 0.51 -1.05 0.09 0.05 0.1 0.05 0.09 0.05 0.09 0.04 0.09 0.05 0.09 0.05 0.08 0.05 0.09 0.05 0.09 0.05 0.08 0.05 0.08 0.05 0.09 0.06 0.08 0.05 0.08 0.05 0.07 0.05 0.08 0.06 0.08 0.05 0.07 0.06 0.08 0.05 0.07 0.06 0.07 0.06 0.07 0.05 0.07 0.06 0.07 0.06 0.07 0.06 0.07 0.06 0.06 0.06 0.06 0.06 0.07 0.06 0.06 0.06 0.06 0.07 0.06 0.06 0 0zm0 0c0.22,0.23 0.21,0.6 -0.03,0.82 -0.24,0.22 -0.61,0.21 -0.82,-0.03l0.85 -0.79zm1 2.14l-1.16 0 0 0 0 -0.03 0 -0.04 -0.01 -0.03 0 -0.04 -0.01 -0.03 0 -0.04 -0.01 -0.03 -0.01 -0.04 -0.01 -0.04 -0.01 -0.04 -0.01 -0.03 -0.02 -0.04 -0.01 -0.04 -0.02 -0.04 -0.02 -0.04 -0.02 -0.05 -0.02 -0.04 -0.02 -0.04 -0.02 -0.05 -0.03 -0.04 -0.03 -0.05 -0.03 -0.04 -0.03 -0.05 -0.03 -0.04 -0.04 -0.05 -0.03 -0.05 -0.04 -0.05 -0.04 -0.05 -0.04 -0.05 -0.04 -0.05 -0.05 -0.05 -0.05 -0.05 0.86 -0.79 0.06 0.06 0.05 0.06 0.06 0.07 0.05 0.06 0.05 0.07 0.05 0.06 0.05 0.06 0.05 0.07 0.04 0.06 0.05 0.07 0.04 0.06 0.04 0.07 0.04 0.06 0.03 0.07 0.04 0.07 0.03 0.06 0.03 0.07 0.03 0.07 0.03 0.07 0.03 0.06 0.02 0.07 0.03 0.07 0.02 0.07 0.01 0.07 0.02 0.07 0.01 0.07 0.02 0.07 0.01 0.07 0 0.07 0.01 0.07 0 0.07 0 0.07 0 0zm0 0c0,0.32 -0.26,0.58 -0.58,0.58 -0.32,0 -0.58,-0.26 -0.58,-0.58l1.16 0zm-0.09 0.6l-1.11 -0.36 -0.01 0.04 0 -0.02 0.01 -0.01 0 -0.01 0 -0.02 0.01 -0.01 0 -0.01 0 -0.01 0 -0.02 0.01 0 0 -0.02 0 -0.01 0 0 0 -0.02 0.01 -0.01 0 -0.01 0 -0.01 0 0 0 -0.01 0 -0.01 0 -0.01 0 0 0 -0.01 0 -0.01 0.01 -0.01 0 0 0 0 0 -0.01 0 -0.01 0 0 0 -0.01 0 0 0 0 1.16 0 0 0.02 0 0.02 0 0.01 0 0.02 0 0.02 0 0.01 0 0.02 0 0.02 0 0.01 -0.01 0.02 0 0.02 0 0.02 0 0.01 0 0.02 -0.01 0.02 0 0.01 0 0.02 0 0.02 -0.01 0.02 0 0.01 0 0.02 -0.01 0.02 0 0.01 0 0.02 -0.01 0.02 0 0.02 -0.01 0.02 0 0.01 0 0.02 -0.01 0.02 0 0.02 -0.01 0.02 -0.01 0.04zm0.01 -0.04c-0.08,0.31 -0.39,0.5 -0.71,0.42 -0.31,-0.08 -0.5,-0.39 -0.42,-0.7l1.13 0.28zm-3.64 2.92l-0.54 -1.04 0 0 0.19 -0.09 0.17 -0.09 0.18 -0.1 0.16 -0.09 0.16 -0.09 0.16 -0.09 0.15 -0.08 0.14 -0.09 0.14 -0.08 0.14 -0.09 0.12 -0.08 0.13 -0.08 0.11 -0.08 0.11 -0.07 0.11 -0.08 0.1 -0.07 0.09 -0.08 0.09 -0.07 0.08 -0.07 0.08 -0.06 0.07 -0.07 0.06 -0.06 0.06 -0.06 0.05 -0.06 0.05 -0.05 0.04 -0.05 0.03 -0.05 0.03 -0.04 0.02 -0.04 0.02 -0.04 0.01 -0.03 0.01 -0.02 1.11 0.36 -0.03 0.1 -0.05 0.09 -0.05 0.1 -0.05 0.09 -0.06 0.09 -0.06 0.09 -0.07 0.09 -0.07 0.08 -0.08 0.09 -0.09 0.08 -0.08 0.09 -0.09 0.08 -0.1 0.09 -0.1 0.08 -0.11 0.09 -0.11 0.08 -0.11 0.09 -0.12 0.09 -0.13 0.08 -0.13 0.09 -0.13 0.09 -0.14 0.09 -0.15 0.09 -0.15 0.09 -0.15 0.09 -0.16 0.1 -0.16 0.09 -0.17 0.09 -0.18 0.1 -0.18 0.1 -0.18 0.09 -0.19 0.1 0 0zm0 0c-0.29,0.15 -0.64,0.04 -0.79,-0.25 -0.15,-0.29 -0.03,-0.64 0.25,-0.79l0.54 1.04zm-4.9 1.62l0 -1.17 0 0 0.09 0 0.09 0 0.09 -0.01 0.09 -0.01 0.1 -0.01 0.1 -0.02 0.11 -0.01 0.11 -0.02 0.11 -0.03 0.12 -0.02 0.12 -0.03 0.12 -0.04 0.13 -0.03 0.13 -0.04 0.13 -0.04 0.14 -0.05 0.13 -0.04 0.15 -0.05 0.14 -0.06 0.15 -0.05 0.15 -0.06 0.16 -0.07 0.15 -0.06 0.16 -0.07 0.17 -0.08 0.16 -0.07 0.17 -0.08 0.18 -0.08 0.17 -0.08 0.18 -0.09 0.18 -0.09 0.18 -0.1 0.54 1.04 -0.19 0.1 -0.19 0.09 -0.19 0.09 -0.18 0.09 -0.18 0.09 -0.18 0.08 -0.18 0.08 -0.17 0.08 -0.17 0.07 -0.17 0.07 -0.16 0.07 -0.17 0.06 -0.16 0.06 -0.15 0.06 -0.16 0.06 -0.15 0.05 -0.15 0.05 -0.15 0.05 -0.15 0.04 -0.14 0.04 -0.14 0.04 -0.14 0.03 -0.14 0.03 -0.13 0.03 -0.14 0.03 -0.13 0.02 -0.12 0.02 -0.13 0.01 -0.12 0.01 -0.13 0.01 -0.12 0.01 -0.12 0 0 0zm0 0c-0.32,0 -0.58,-0.26 -0.58,-0.58 0,-0.33 0.26,-0.59 0.58,-0.59l0 1.17zm-2.29 -0.59l0.62 -0.99 0 0 0.04 0.03 0.04 0.02 0.04 0.02 0.04 0.03 0.04 0.02 0.05 0.02 0.04 0.02 0.05 0.02 0.04 0.02 0.05 0.01 0.05 0.02 0.05 0.02 0.04 0.01 0.05 0.02 0.05 0.01 0.06 0.02 0.05 0.01 0.05 0.01 0.06 0.01 0.05 0.01 0.06 0.01 0.05 0.01 0.06 0.01 0.06 0 0.06 0.01 0.06 0.01 0.06 0 0.07 0.01 0.06 0 0.06 0 0.07 0 0.06 0 0 1.17 -0.08 0 -0.08 0 -0.08 -0.01 -0.08 0 -0.08 -0.01 -0.08 0 -0.07 -0.01 -0.08 -0.01 -0.08 -0.01 -0.07 -0.01 -0.08 -0.01 -0.07 -0.01 -0.08 -0.01 -0.07 -0.02 -0.07 -0.02 -0.08 -0.01 -0.07 -0.02 -0.07 -0.02 -0.07 -0.02 -0.07 -0.02 -0.07 -0.03 -0.07 -0.02 -0.06 -0.03 -0.07 -0.03 -0.07 -0.02 -0.06 -0.03 -0.07 -0.03 -0.06 -0.04 -0.06 -0.03 -0.07 -0.03 -0.06 -0.04 -0.06 -0.04 0 0zm0 0c-0.27,-0.17 -0.36,-0.52 -0.19,-0.8 0.17,-0.27 0.53,-0.36 0.81,-0.19l-0.62 0.99zm-1.07 -1.72l1.16 0 0 0 0 0.02 0 0.03 0.01 0.02 0 0.02 0 0.03 0.01 0.02 0 0.02 0.01 0.02 0 0.03 0.01 0.02 0.01 0.02 0.01 0.02 0.01 0.02 0.01 0.02 0.01 0.02 0.02 0.02 0.01 0.03 0.02 0.02 0.02 0.02 0.01 0.02 0.02 0.03 0.03 0.02 0.02 0.02 0.02 0.03 0.03 0.02 0.03 0.03 0.03 0.02 0.03 0.03 0.04 0.02 0.03 0.02 0.04 0.03 0.04 0.02 -0.62 0.99 -0.06 -0.03 -0.06 -0.04 -0.05 -0.04 -0.06 -0.04 -0.05 -0.04 -0.06 -0.05 -0.05 -0.04 -0.05 -0.05 -0.05 -0.04 -0.04 -0.05 -0.05 -0.05 -0.04 -0.05 -0.04 -0.05 -0.05 -0.05 -0.03 -0.06 -0.04 -0.05 -0.04 -0.06 -0.03 -0.05 -0.03 -0.06 -0.03 -0.06 -0.02 -0.06 -0.03 -0.06 -0.02 -0.06 -0.02 -0.06 -0.02 -0.07 -0.01 -0.06 -0.02 -0.07 -0.01 -0.06 0 -0.07 -0.01 -0.06 0 -0.07 0 -0.06 0 0zm0 0c0,-0.33 0.26,-0.59 0.58,-0.59 0.32,0 0.58,0.26 0.58,0.59l-1.16 0zm0.16 -0.74l1.1 0.38 0 0 -0.01 0.02 0 0.02 -0.01 0.02 -0.01 0.02 0 0.02 -0.01 0.02 0 0.02 -0.01 0.01 0 0.02 -0.01 0.02 0 0.01 -0.01 0.02 0 0.01 -0.01 0.02 0 0.01 0 0.02 0 0.01 -0.01 0.01 0 0.01 0 0.01 0 0.01 0 0.01 -0.01 0 0 0.01 0 0 0 0 0 0.01 0 0 0 0.01 0 -0.01 0 0 0 0 -1.16 0 0 -0.03 0 -0.02 0 -0.03 0 -0.02 0 -0.02 0 -0.02 0.01 -0.02 0 -0.02 0 -0.02 0.01 -0.03 0 -0.02 0 -0.02 0.01 -0.02 0 -0.02 0.01 -0.02 0 -0.03 0.01 -0.02 0 -0.02 0.01 -0.02 0 -0.02 0.01 -0.03 0.01 -0.02 0 -0.02 0.01 -0.02 0.01 -0.03 0 -0.02 0.01 -0.03 0.01 -0.02 0.01 -0.03 0.01 -0.02 0 -0.03 0.01 -0.02 0.01 -0.01zm-0.01 0.01c0.1,-0.31 0.44,-0.47 0.74,-0.37 0.31,0.1 0.47,0.43 0.37,0.74l-1.11 -0.37zm2.64 -1.14l0 1.17 0 0 -0.11 0 -0.1 0 -0.1 0 -0.09 0.01 -0.09 0 -0.09 0.01 -0.08 0.01 -0.08 0.01 -0.08 0.01 -0.07 0.01 -0.07 0.01 -0.06 0.02 -0.06 0.01 -0.06 0.02 -0.05 0.01 -0.05 0.02 -0.04 0.02 -0.04 0.01 -0.04 0.02 -0.03 0.02 -0.03 0.01 -0.02 0.02 -0.02 0.01 -0.02 0.01 -0.01 0.02 -0.01 0.01 -0.01 0.01 -0.01 0 0 0.01 -0.01 0.01 0 0.01 0 0 -1.1 -0.38 0.03 -0.08 0.04 -0.08 0.04 -0.08 0.05 -0.08 0.05 -0.07 0.06 -0.06 0.06 -0.07 0.06 -0.05 0.07 -0.06 0.07 -0.05 0.07 -0.05 0.08 -0.04 0.08 -0.04 0.08 -0.04 0.08 -0.03 0.08 -0.03 0.08 -0.03 0.09 -0.02 0.09 -0.03 0.09 -0.02 0.1 -0.02 0.09 -0.02 0.1 -0.01 0.1 -0.02 0.1 -0.01 0.11 -0.01 0.1 -0.01 0.11 -0.01 0.12 0 0.11 0 0.12 -0.01 0.12 0 0 0zm0 0c0.32,0 0.58,0.26 0.58,0.59 0,0.32 -0.26,0.58 -0.58,0.58l0 -1.17zm2.65 -0.7l0.65 0.97 0.01 -0.01 -0.09 0.06 -0.08 0.06 -0.09 0.05 -0.09 0.05 -0.09 0.05 -0.09 0.05 -0.09 0.04 -0.09 0.05 -0.1 0.04 -0.09 0.04 -0.1 0.04 -0.1 0.03 -0.1 0.04 -0.1 0.03 -0.1 0.03 -0.1 0.03 -0.11 0.03 -0.1 0.02 -0.11 0.02 -0.11 0.03 -0.11 0.02 -0.11 0.01 -0.11 0.02 -0.11 0.01 -0.12 0.02 -0.11 0.01 -0.12 0.01 -0.11 0.01 -0.12 0 -0.12 0.01 -0.12 0 -0.12 0 0 -1.17 0.1 0 0.11 0 0.1 0 0.1 -0.01 0.1 -0.01 0.1 0 0.09 -0.01 0.1 -0.01 0.09 -0.02 0.09 -0.01 0.09 -0.01 0.09 -0.02 0.09 -0.02 0.09 -0.02 0.08 -0.02 0.08 -0.02 0.08 -0.02 0.08 -0.02 0.08 -0.03 0.08 -0.03 0.08 -0.02 0.07 -0.03 0.07 -0.03 0.08 -0.04 0.07 -0.03 0.07 -0.03 0.06 -0.04 0.07 -0.04 0.06 -0.03 0.07 -0.04 0.06 -0.04 0.06 -0.04 0.01 -0.01zm-0.01 0.01c0.27,-0.19 0.63,-0.12 0.81,0.14 0.19,0.27 0.12,0.63 -0.14,0.81l-0.67 -0.95zm1.87 0.16l-1.21 0.8 -0.65 -0.97 1.22 -0.8 0.73 0.07 -0.09 0.9zm-0.64 -0.97c0.27,-0.18 0.63,-0.11 0.81,0.16 0.18,0.27 0.1,0.63 -0.17,0.81l-0.64 -0.97zm-2.22 -2.78l2.95 2.85 -0.81 0.83 -2.95 -2.85 0.81 -0.84 0 0.01zm-0.81 0.83c-0.23,-0.22 -0.24,-0.59 -0.01,-0.82 0.22,-0.23 0.59,-0.24 0.82,-0.01l-0.81 0.83zm-2.56 -2.77l0.97 -0.64 0 0 0.03 0.05 0.03 0.04 0.04 0.05 0.04 0.05 0.04 0.06 0.04 0.05 0.05 0.06 0.05 0.06 0.05 0.07 0.06 0.06 0.06 0.07 0.06 0.07 0.06 0.08 0.07 0.07 0.07 0.08 0.08 0.08 0.07 0.08 0.08 0.09 0.09 0.08 0.08 0.09 0.09 0.09 0.09 0.1 0.09 0.09 0.1 0.1 0.1 0.1 0.1 0.1 0.11 0.1 0.11 0.11 0.11 0.11 0.11 0.11 0.12 0.11 0.12 0.11 -0.81 0.85 -0.12 -0.12 -0.12 -0.11 -0.11 -0.12 -0.12 -0.11 -0.11 -0.1 -0.11 -0.11 -0.1 -0.1 -0.1 -0.11 -0.1 -0.1 -0.1 -0.1 -0.1 -0.09 -0.09 -0.1 -0.09 -0.09 -0.08 -0.09 -0.09 -0.09 -0.08 -0.09 -0.08 -0.08 -0.07 -0.08 -0.08 -0.09 -0.07 -0.07 -0.06 -0.08 -0.07 -0.08 -0.06 -0.07 -0.06 -0.08 -0.06 -0.07 -0.06 -0.07 -0.05 -0.06 -0.05 -0.07 -0.05 -0.06 -0.04 -0.07 -0.04 -0.06 -0.04 -0.06 0 0zm0 0c-0.18,-0.27 -0.1,-0.63 0.17,-0.81 0.27,-0.17 0.63,-0.1 0.8,0.17l-0.97 0.64zm-0.63 -2.26l1.17 0 0 0 0 0.07 0 0.06 0 0.06 0.01 0.05 0 0.06 0.01 0.06 0 0.06 0.01 0.05 0.01 0.06 0 0.05 0.01 0.06 0.01 0.05 0.01 0.05 0.02 0.05 0.01 0.06 0.01 0.05 0.02 0.05 0.01 0.04 0.02 0.05 0.01 0.05 0.02 0.05 0.02 0.04 0.02 0.05 0.02 0.05 0.02 0.04 0.02 0.05 0.02 0.04 0.02 0.04 0.03 0.05 0.02 0.04 0.03 0.04 0.02 0.04 -0.97 0.64 -0.04 -0.06 -0.04 -0.06 -0.04 -0.07 -0.03 -0.06 -0.04 -0.06 -0.03 -0.07 -0.03 -0.06 -0.03 -0.07 -0.03 -0.07 -0.03 -0.06 -0.02 -0.07 -0.03 -0.07 -0.02 -0.07 -0.02 -0.07 -0.02 -0.07 -0.02 -0.07 -0.02 -0.07 -0.02 -0.07 -0.02 -0.07 -0.01 -0.08 -0.01 -0.07 -0.02 -0.07 -0.01 -0.08 -0.01 -0.07 -0.01 -0.08 -0.01 -0.07 0 -0.08 -0.01 -0.07 0 -0.08 0 -0.08 -0.01 -0.08 0 -0.08 0 0zm0 0c0,-0.32 0.26,-0.58 0.59,-0.58 0.32,0 0.58,0.26 0.58,0.58l-1.17 0zm1.04 -3.29l0.98 0.63 0 0 -0.05 0.09 -0.05 0.08 -0.05 0.09 -0.05 0.08 -0.05 0.08 -0.04 0.09 -0.05 0.08 -0.04 0.09 -0.04 0.08 -0.03 0.08 -0.04 0.09 -0.03 0.08 -0.03 0.08 -0.04 0.09 -0.02 0.08 -0.03 0.08 -0.03 0.09 -0.02 0.08 -0.02 0.08 -0.02 0.08 -0.02 0.09 -0.02 0.08 -0.01 0.08 -0.02 0.08 -0.01 0.09 -0.01 0.08 -0.01 0.08 -0.01 0.08 0 0.09 -0.01 0.08 0 0.08 0 0.08 -1.17 0 0 -0.1 0.01 -0.11 0 -0.1 0.01 -0.11 0.01 -0.1 0.01 -0.11 0.01 -0.1 0.02 -0.11 0.02 -0.1 0.02 -0.11 0.02 -0.1 0.02 -0.1 0.03 -0.11 0.03 -0.1 0.02 -0.11 0.04 -0.1 0.03 -0.1 0.04 -0.11 0.03 -0.1 0.04 -0.1 0.05 -0.1 0.04 -0.1 0.04 -0.11 0.05 -0.1 0.05 -0.1 0.05 -0.1 0.06 -0.1 0.05 -0.1 0.06 -0.1 0.06 -0.1 0.06 -0.1 0.06 -0.1 0 0zm0 0c0.17,-0.27 0.53,-0.35 0.81,-0.17 0.27,0.17 0.35,0.53 0.17,0.8l-0.98 -0.63zm2.52 -2.24l0.45 1.08 0 0 -0.07 0.03 -0.07 0.03 -0.07 0.03 -0.06 0.04 -0.07 0.03 -0.07 0.04 -0.07 0.04 -0.06 0.04 -0.07 0.04 -0.06 0.05 -0.07 0.04 -0.06 0.05 -0.07 0.05 -0.06 0.05 -0.06 0.06 -0.06 0.05 -0.07 0.06 -0.06 0.06 -0.06 0.05 -0.06 0.07 -0.06 0.06 -0.06 0.07 -0.06 0.06 -0.06 0.07 -0.05 0.07 -0.06 0.08 -0.06 0.07 -0.06 0.08 -0.05 0.07 -0.06 0.09 -0.05 0.08 -0.06 0.08 -0.98 -0.63 0.06 -0.1 0.07 -0.09 0.07 -0.1 0.06 -0.09 0.07 -0.09 0.07 -0.09 0.07 -0.09 0.07 -0.09 0.07 -0.08 0.07 -0.08 0.08 -0.08 0.07 -0.08 0.08 -0.08 0.07 -0.07 0.08 -0.08 0.08 -0.07 0.08 -0.07 0.08 -0.07 0.08 -0.06 0.08 -0.07 0.09 -0.06 0.08 -0.06 0.09 -0.06 0.08 -0.05 0.09 -0.06 0.09 -0.05 0.09 -0.05 0.09 -0.05 0.09 -0.04 0.09 -0.05 0.09 -0.04 0.1 -0.04 -0.01 0zm0.01 0c0.29,-0.12 0.63,0.02 0.76,0.32 0.12,0.29 -0.02,0.63 -0.32,0.76l-0.44 -1.08z"/>
    <path id="_1_0" class="fil2" d="M14.78 0.84c0.4,-0.17 0.96,-0.26 1.66,-0.26 1.6,0 2.75,0.29 3.43,0.87 0.43,0.38 0.64,0.86 0.64,1.44 0,0.02 -0.01,0.05 -0.02,0.09 -0.01,0.05 -0.01,0.08 -0.01,0.1 -0.07,0.38 -0.19,0.64 -0.37,0.75 -0.18,0.12 -0.53,0.18 -1.04,0.18 -0.36,0 -0.66,-0.01 -0.9,-0.03 -0.15,-0.02 -0.37,-0.03 -0.67,-0.03 -0.92,0 -1.62,0.15 -2.1,0.46 -0.48,0.31 -0.72,0.73 -0.72,1.26 0,0.64 0.36,1.36 1.08,2.15 0.71,0.79 1.73,1.53 3.05,2.21 0.96,0.47 1.73,1.01 2.29,1.62 0.57,0.6 0.85,1.19 0.85,1.74 0,0.11 -0.02,0.25 -0.06,0.42 -0.22,0.66 -1.33,1.51 -3.35,2.54 -2.02,1.04 -3.56,1.56 -4.63,1.56 -0.79,0 -1.45,-0.17 -1.98,-0.5 -0.53,-0.33 -0.8,-0.74 -0.8,-1.23 0,-0.11 0.04,-0.29 0.13,-0.55 0.17,-0.49 0.86,-0.73 2.08,-0.73 1.21,0 2.21,-0.27 2.98,-0.81l1.21 -0.8 -2.94 -2.85c-1.31,-1.23 -2.13,-2.12 -2.49,-2.67 -0.35,-0.54 -0.52,-1.19 -0.52,-1.94 0,-1 0.31,-1.99 0.94,-2.97 0.63,-0.99 1.38,-1.66 2.26,-2.02z"/>
   </g>
   <g>
    <path class="fil0" d="M24.53 3.49l0 1.17 0 0 -0.04 0 -0.04 0 -0.03 0 -0.04 0 -0.03 0.01 -0.04 0 -0.03 0 -0.03 0.01 -0.03 0 -0.03 0 -0.02 0.01 -0.03 0 -0.02 0.01 -0.03 0.01 -0.02 0 -0.02 0.01 -0.02 0.01 -0.01 0 -0.02 0.01 -0.01 0 -0.02 0.01 -0.01 0.01 -0.01 0 -0.02 0.01 -0.01 0.01 0 0 -0.01 0.01 -0.01 0.01 -0.01 0 0 0.01 -0.01 0 -0.01 0.01 -0.86 -0.78 0.04 -0.04 0.03 -0.04 0.04 -0.03 0.04 -0.04 0.04 -0.03 0.04 -0.03 0.04 -0.03 0.05 -0.02 0.04 -0.03 0.04 -0.02 0.05 -0.03 0.05 -0.02 0.04 -0.02 0.05 -0.02 0.05 -0.02 0.04 -0.01 0.05 -0.02 0.05 -0.01 0.05 -0.01 0.05 -0.01 0.05 -0.01 0.05 -0.01 0.06 -0.01 0.05 -0.01 0.05 -0.01 0.05 0 0.06 -0.01 0.05 0 0.05 0 0.06 -0.01 0.05 0 0.06 0 0 0zm0 0c0.32,0 0.58,0.26 0.58,0.59 0,0.32 -0.26,0.58 -0.58,0.58l0 -1.17zm1.33 0.27l-0.45 1.08 0 0 -0.03 -0.01 -0.03 -0.01 -0.02 -0.02 -0.03 0 -0.03 -0.01 -0.02 -0.01 -0.03 -0.01 -0.02 -0.01 -0.03 -0.01 -0.03 -0.01 -0.03 0 -0.02 -0.01 -0.03 -0.01 -0.03 0 -0.02 -0.01 -0.03 -0.01 -0.03 0 -0.03 -0.01 -0.02 0 -0.03 -0.01 -0.03 0 -0.03 0 -0.02 -0.01 -0.03 0 -0.03 0 -0.03 0 -0.03 -0.01 -0.02 0 -0.03 0 -0.03 0 -0.03 0 -0.03 0 0 -1.17 0.04 0 0.05 0 0.04 0.01 0.04 0 0.05 0 0.04 0 0.04 0.01 0.04 0 0.05 0 0.04 0.01 0.04 0 0.04 0.01 0.05 0.01 0.04 0 0.04 0.01 0.04 0.01 0.04 0.01 0.04 0.01 0.05 0.01 0.04 0.01 0.04 0.01 0.04 0.01 0.04 0.01 0.04 0.01 0.04 0.02 0.04 0.01 0.04 0.02 0.04 0.01 0.04 0.02 0.04 0.01 0.04 0.02 0.04 0.01 0 0zm0 0c0.3,0.13 0.44,0.47 0.31,0.77 -0.12,0.29 -0.47,0.43 -0.76,0.31l0.45 -1.08zm0.98 0.92l-1.1 0.39 0 0.01 0 -0.01 0 0 0 0 0 -0.01 0 0 -0.01 0 0 -0.01 0 0 -0.01 -0.01 0 0 -0.01 -0.01 0 -0.01 -0.01 0 0 -0.01 -0.01 -0.01 -0.01 -0.01 -0.01 0 -0.01 -0.01 -0.01 -0.01 -0.01 -0.01 -0.02 -0.01 -0.01 -0.01 -0.02 -0.01 -0.02 -0.01 -0.01 -0.01 -0.02 -0.01 -0.02 -0.01 -0.02 -0.01 -0.02 -0.01 -0.02 -0.01 -0.03 -0.01 -0.02 -0.01 0.45 -1.08 0.04 0.02 0.04 0.02 0.04 0.02 0.04 0.02 0.04 0.02 0.04 0.02 0.04 0.02 0.03 0.02 0.04 0.02 0.04 0.02 0.03 0.03 0.04 0.02 0.03 0.03 0.03 0.02 0.04 0.03 0.03 0.03 0.03 0.03 0.03 0.03 0.03 0.03 0.03 0.03 0.03 0.03 0.02 0.03 0.03 0.03 0.03 0.04 0.02 0.04 0.02 0.03 0.03 0.04 0.02 0.04 0.02 0.04 0.02 0.04 0.01 0.04 0.02 0.04 0 0zm0 0c0.11,0.3 -0.05,0.63 -0.35,0.74 -0.3,0.11 -0.64,-0.04 -0.75,-0.34l1.1 -0.4zm0.32 3.3l-1.16 0 0 0 0 -0.14 0 -0.14 -0.01 -0.13 0 -0.13 0 -0.13 0 -0.12 -0.01 -0.13 0 -0.11 -0.01 -0.12 0 -0.11 -0.01 -0.11 0 -0.11 -0.01 -0.1 -0.01 -0.1 0 -0.1 -0.01 -0.09 -0.01 -0.09 -0.01 -0.09 -0.01 -0.09 -0.01 -0.08 -0.01 -0.07 -0.01 -0.08 -0.01 -0.07 -0.02 -0.06 -0.01 -0.07 -0.01 -0.06 -0.01 -0.05 -0.02 -0.06 -0.01 -0.04 -0.01 -0.05 -0.01 -0.04 -0.02 -0.04 1.1 -0.39 0.02 0.07 0.02 0.06 0.03 0.07 0.01 0.08 0.02 0.07 0.02 0.08 0.02 0.07 0.01 0.08 0.02 0.09 0.01 0.08 0.01 0.09 0.02 0.09 0.01 0.1 0.01 0.09 0.01 0.1 0.01 0.1 0.01 0.1 0.01 0.11 0 0.11 0.01 0.11 0.01 0.11 0 0.12 0.01 0.12 0 0.12 0.01 0.13 0 0.12 0.01 0.14 0 0.13 0 0.14 0 0.14 0 0.14 0 0.14 0 0zm0 0c0,0.32 -0.26,0.59 -0.58,0.59 -0.32,0 -0.58,-0.27 -0.58,-0.59l1.16 0zm0.43 3.84l-1.12 0.32 0 0 -0.03 -0.1 -0.03 -0.11 -0.03 -0.11 -0.02 -0.11 -0.03 -0.11 -0.03 -0.11 -0.02 -0.12 -0.02 -0.12 -0.02 -0.11 -0.02 -0.12 -0.02 -0.13 -0.02 -0.12 -0.02 -0.12 -0.02 -0.13 -0.01 -0.13 -0.02 -0.13 -0.01 -0.13 -0.01 -0.13 -0.02 -0.13 -0.01 -0.14 -0.01 -0.14 -0.01 -0.13 -0.01 -0.14 0 -0.15 -0.01 -0.14 -0.01 -0.14 0 -0.15 -0.01 -0.15 0 -0.15 0 -0.15 0 -0.15 0 -0.16 1.16 0 0 0.15 0 0.15 0.01 0.14 0 0.14 0 0.14 0.01 0.14 0 0.14 0.01 0.14 0.01 0.13 0.01 0.13 0 0.13 0.01 0.13 0.01 0.13 0.02 0.12 0.01 0.12 0.01 0.12 0.02 0.12 0.01 0.12 0.02 0.12 0.01 0.11 0.02 0.11 0.02 0.11 0.02 0.11 0.01 0.11 0.03 0.1 0.02 0.11 0.02 0.1 0.02 0.1 0.02 0.09 0.03 0.1 0.02 0.09 0.03 0.09 0 0zm0 0c0.09,0.31 -0.09,0.64 -0.4,0.73 -0.31,0.08 -0.63,-0.1 -0.72,-0.41l1.12 -0.32zm0.21 1.32l-1.16 0 0 0 0 -0.03 0 -0.02 0 -0.02 -0.01 -0.03 0 -0.02 0 -0.03 0 -0.03 0 -0.02 -0.01 -0.03 0 -0.03 0 -0.03 -0.01 -0.03 0 -0.02 0 -0.03 -0.01 -0.04 0 -0.03 -0.01 -0.03 0 -0.03 -0.01 -0.03 -0.01 -0.03 0 -0.04 -0.01 -0.03 -0.01 -0.04 -0.01 -0.03 0 -0.04 -0.01 -0.03 -0.01 -0.04 -0.01 -0.03 -0.01 -0.04 -0.01 -0.04 -0.01 -0.04 -0.01 -0.04 1.12 -0.32 0.01 0.05 0.01 0.04 0.02 0.05 0.01 0.04 0.01 0.05 0.01 0.04 0.01 0.04 0.01 0.05 0.01 0.04 0.01 0.04 0.01 0.05 0.01 0.04 0.01 0.04 0 0.04 0.01 0.04 0.01 0.04 0 0.04 0.01 0.04 0.01 0.04 0 0.04 0.01 0.04 0 0.04 0.01 0.04 0 0.04 0 0.04 0.01 0.04 0 0.04 0 0.04 0 0.03 0 0.04 0 0.04 0 0.04 0 0zm0 0c0,0.32 -0.26,0.58 -0.58,0.58 -0.32,0 -0.58,-0.26 -0.58,-0.58l1.16 0zm-0.5 1.58l-0.9 -0.74 0 0 0.01 -0.01 0.02 -0.02 0.01 -0.02 0.01 -0.01 0.01 -0.02 0.01 -0.02 0.02 -0.02 0.01 -0.02 0.01 -0.02 0.01 -0.02 0.01 -0.02 0.01 -0.03 0 -0.02 0.01 -0.02 0.01 -0.03 0.01 -0.02 0.01 -0.03 0 -0.03 0.01 -0.02 0.01 -0.03 0 -0.03 0.01 -0.03 0 -0.03 0.01 -0.04 0 -0.03 0.01 -0.03 0 -0.04 0 -0.03 0 -0.04 0.01 -0.04 0 -0.03 0 -0.04 1.16 0 0 0.05 0 0.06 0 0.06 0 0.05 -0.01 0.06 0 0.05 -0.01 0.06 0 0.05 -0.01 0.05 -0.01 0.05 -0.01 0.06 -0.01 0.05 -0.01 0.05 -0.02 0.05 -0.01 0.05 -0.01 0.05 -0.02 0.05 -0.02 0.05 -0.01 0.05 -0.02 0.05 -0.02 0.05 -0.02 0.05 -0.03 0.04 -0.02 0.05 -0.02 0.05 -0.03 0.04 -0.03 0.04 -0.03 0.05 -0.02 0.04 -0.03 0.04 -0.04 0.04 -0.03 0.04 0 0zm0 0c-0.2,0.25 -0.57,0.29 -0.82,0.08 -0.25,-0.2 -0.28,-0.57 -0.08,-0.82l0.9 0.74zm-1.36 0.67l0 -1.17 0 0 0.02 0 0.02 0 0.01 0 0.02 0 0.02 -0.01 0.01 0 0.02 0 0.01 -0.01 0.02 0 0.01 0 0.02 -0.01 0.01 0 0.01 -0.01 0.02 0 0.01 -0.01 0.01 0 0.02 -0.01 0.01 -0.01 0.01 -0.01 0.02 0 0.01 -0.01 0.01 -0.01 0.01 -0.01 0.02 -0.01 0.01 -0.01 0.02 -0.02 0.01 -0.01 0.01 -0.01 0.02 -0.02 0.01 -0.01 0.02 -0.02 0.01 -0.02 0.9 0.74 -0.03 0.04 -0.03 0.04 -0.04 0.03 -0.03 0.04 -0.03 0.03 -0.04 0.04 -0.04 0.03 -0.04 0.03 -0.03 0.03 -0.04 0.03 -0.04 0.03 -0.04 0.03 -0.05 0.02 -0.04 0.03 -0.04 0.02 -0.04 0.02 -0.05 0.02 -0.04 0.02 -0.05 0.02 -0.04 0.02 -0.05 0.01 -0.05 0.02 -0.04 0.01 -0.05 0.01 -0.05 0.01 -0.05 0.01 -0.05 0.01 -0.05 0 -0.04 0.01 -0.05 0 -0.05 0 -0.05 0.01 0 0zm0 0c-0.32,0 -0.58,-0.27 -0.58,-0.59 0,-0.32 0.26,-0.58 0.58,-0.58l0 1.17zm-1.68 -0.75l0.79 -0.86 0 0 0.04 0.03 0.03 0.03 0.03 0.03 0.04 0.03 0.03 0.02 0.03 0.02 0.03 0.03 0.03 0.02 0.03 0.02 0.03 0.02 0.03 0.02 0.03 0.02 0.03 0.01 0.03 0.02 0.03 0.01 0.02 0.01 0.03 0.02 0.03 0.01 0.02 0.01 0.03 0.01 0.03 0.01 0.02 0 0.03 0.01 0.02 0.01 0.02 0 0.03 0.01 0.02 0 0.03 0 0.02 0.01 0.02 0 0.03 0 0.02 0 0 1.17 -0.06 -0.01 -0.05 0 -0.06 0 -0.06 -0.01 -0.05 -0.01 -0.06 0 -0.06 -0.01 -0.05 -0.02 -0.06 -0.01 -0.05 -0.02 -0.06 -0.01 -0.05 -0.02 -0.06 -0.02 -0.05 -0.02 -0.05 -0.02 -0.06 -0.03 -0.05 -0.02 -0.05 -0.03 -0.05 -0.03 -0.05 -0.02 -0.05 -0.03 -0.05 -0.04 -0.05 -0.03 -0.05 -0.03 -0.05 -0.04 -0.05 -0.03 -0.05 -0.04 -0.05 -0.04 -0.05 -0.04 -0.04 -0.04 -0.05 -0.04 -0.05 -0.04 0 0zm0 0c-0.23,-0.22 -0.25,-0.59 -0.03,-0.83 0.22,-0.23 0.59,-0.25 0.82,-0.03l-0.79 0.86zm-1.18 -1.92l1.1 -0.39 0 0 0.03 0.07 0.02 0.06 0.02 0.06 0.02 0.05 0.03 0.06 0.02 0.06 0.03 0.05 0.02 0.06 0.03 0.05 0.02 0.05 0.03 0.05 0.02 0.05 0.03 0.05 0.03 0.05 0.02 0.04 0.03 0.05 0.03 0.04 0.03 0.05 0.02 0.04 0.03 0.04 0.03 0.04 0.03 0.04 0.03 0.04 0.03 0.04 0.03 0.03 0.03 0.04 0.03 0.03 0.03 0.04 0.03 0.03 0.03 0.03 0.03 0.03 0.03 0.03 -0.79 0.86 -0.05 -0.05 -0.04 -0.04 -0.05 -0.05 -0.04 -0.05 -0.05 -0.05 -0.04 -0.05 -0.05 -0.05 -0.04 -0.05 -0.04 -0.06 -0.04 -0.05 -0.04 -0.05 -0.04 -0.06 -0.04 -0.06 -0.04 -0.06 -0.04 -0.05 -0.04 -0.06 -0.03 -0.06 -0.04 -0.06 -0.03 -0.07 -0.04 -0.06 -0.03 -0.06 -0.03 -0.07 -0.04 -0.07 -0.03 -0.06 -0.03 -0.07 -0.03 -0.07 -0.03 -0.07 -0.03 -0.07 -0.02 -0.07 -0.03 -0.07 -0.03 -0.07 -0.03 -0.08 0 0zm0 0c-0.1,-0.3 0.06,-0.63 0.36,-0.74 0.3,-0.11 0.64,0.05 0.74,0.35l-1.1 0.39zm-0.57 -5.41l1.16 0 0 0 0 0.22 0.01 0.23 0 0.21 0 0.21 0.01 0.21 0 0.21 0.01 0.2 0.01 0.19 0.01 0.19 0.01 0.19 0.01 0.18 0.01 0.18 0.01 0.17 0.01 0.17 0.02 0.16 0.02 0.16 0.01 0.16 0.02 0.15 0.02 0.15 0.02 0.14 0.02 0.14 0.02 0.13 0.02 0.13 0.03 0.12 0.02 0.12 0.03 0.12 0.02 0.11 0.03 0.1 0.03 0.1 0.03 0.1 0.02 0.09 0.03 0.08 -1.1 0.39 -0.03 -0.11 -0.04 -0.11 -0.03 -0.12 -0.04 -0.12 -0.03 -0.13 -0.03 -0.12 -0.03 -0.14 -0.03 -0.13 -0.02 -0.14 -0.03 -0.14 -0.02 -0.15 -0.02 -0.15 -0.03 -0.16 -0.02 -0.16 -0.02 -0.16 -0.01 -0.16 -0.02 -0.17 -0.02 -0.18 -0.01 -0.18 -0.02 -0.18 -0.01 -0.19 -0.01 -0.19 -0.01 -0.19 -0.01 -0.2 -0.01 -0.2 0 -0.21 -0.01 -0.21 0 -0.21 -0.01 -0.22 0 -0.22 0 -0.23 0 -0.23 0 0zm0 0c0,-0.32 0.26,-0.58 0.58,-0.58 0.32,0 0.58,0.26 0.58,0.58l-1.16 0zm0.5 -3.27l0.86 0.78 -0.02 0.02 0.02 -0.02 0.01 -0.01 0.01 -0.01 -0.01 0.01 0 0.01 -0.01 0.02 -0.01 0.03 -0.01 0.04 -0.01 0.04 -0.02 0.04 -0.01 0.06 -0.01 0.06 -0.01 0.06 -0.01 0.07 -0.01 0.08 -0.01 0.08 -0.01 0.08 -0.01 0.09 -0.01 0.09 -0.01 0.1 -0.01 0.11 0 0.11 -0.01 0.11 -0.01 0.12 0 0.12 -0.01 0.13 0 0.13 0 0.13 0 0.14 -0.01 0.15 0 0.15 0 0.15 -1.16 0 0 -0.16 0 -0.15 0 -0.15 0 -0.15 0.01 -0.14 0 -0.14 0 -0.13 0.01 -0.13 0.01 -0.13 0 -0.12 0.01 -0.12 0.01 -0.12 0.01 -0.11 0.01 -0.1 0.01 -0.11 0.01 -0.1 0.01 -0.09 0.01 -0.09 0.02 -0.09 0.01 -0.09 0.02 -0.08 0.02 -0.08 0.02 -0.08 0.02 -0.07 0.02 -0.08 0.03 -0.07 0.02 -0.07 0.04 -0.07 0.03 -0.07 0.05 -0.07 0.05 -0.07 0.06 -0.06 -0.02 0.02zm0.02 -0.02c0.23,-0.23 0.6,-0.23 0.82,0 0.23,0.22 0.23,0.59 0,0.82l-0.82 -0.82z"/>
    <path id="_1_1" class="fil3" d="M23.44 4.43c0.22,-0.24 0.58,-0.35 1.09,-0.35 0.38,0 0.75,0.07 1.11,0.22 0.35,0.15 0.57,0.34 0.65,0.58 0.19,0.53 0.29,1.57 0.29,3.1 0,1.62 0.15,2.96 0.45,4 0.13,0.45 0.19,0.84 0.19,1.16 0,0.51 -0.12,0.91 -0.37,1.21 -0.24,0.3 -0.55,0.45 -0.91,0.45 -0.43,0 -0.85,-0.2 -1.28,-0.59 -0.43,-0.4 -0.77,-0.96 -1.03,-1.68 -0.36,-1.03 -0.54,-2.77 -0.54,-5.22 0,-1.69 0.12,-2.65 0.35,-2.88z"/>
   </g>
   <g>
    <path class="fil0" d="M30.29 6.72l0 0 0.05 0 0.05 -0.01 0.05 -0.01 0.05 -0.01 0.05 0 0.04 -0.01 0.05 0 0.05 0 0.05 0 0.04 0 0.05 0 0.05 0 0.05 0 0.04 0.01 0.05 0 0.05 0.01 0.04 0 0.05 0.01 0.05 0.01 0.04 0.01 0.05 0.02 0.04 0.01 0.05 0.02 0.04 0.01 0.04 0.02 0.05 0.02 0.04 0.02 0.04 0.03 0.04 0.02 0.04 0.03 0.04 0.02 0.04 0.03 -0.71 0.92 -0.01 0 0 0 -0.01 -0.01 0 0 -0.01 0 -0.01 -0.01 0 0 -0.01 0 -0.01 -0.01 -0.01 0 -0.01 0 -0.01 -0.01 -0.02 0 -0.01 0 -0.01 -0.01 -0.02 0 -0.02 0 -0.01 0 -0.02 0 -0.02 -0.01 -0.02 0 -0.03 0 -0.02 0 -0.02 0 -0.03 0.01 -0.02 0 -0.03 0 -0.03 0 -0.03 0.01 -0.03 0 -0.03 0.01 -0.03 0 0 0 -0.21 -1.15zm0 0l0.21 1.15c-0.32,0.06 -0.62,-0.15 -0.68,-0.47 -0.06,-0.32 0.15,-0.62 0.47,-0.68zm-1.82 0.88l0.01 -0.01 0.05 -0.04 0.05 -0.04 0.04 -0.04 0.05 -0.04 0.05 -0.04 0.06 -0.04 0.05 -0.03 0.05 -0.04 0.05 -0.03 0.06 -0.04 0.05 -0.03 0.05 -0.03 0.06 -0.03 0.05 -0.03 0.06 -0.03 0.06 -0.03 0.06 -0.02 0.05 -0.03 0.06 -0.02 0.06 -0.03 0.06 -0.02 0.06 -0.02 0.06 -0.02 0.06 -0.02 0.06 -0.02 0.06 -0.02 0.06 -0.02 0.07 -0.01 0.06 -0.02 0.06 -0.01 0.07 -0.01 0.06 -0.02 0.21 1.15 -0.05 0.01 -0.04 0.01 -0.05 0.01 -0.04 0.01 -0.05 0.01 -0.04 0.01 -0.04 0.02 -0.05 0.01 -0.04 0.01 -0.04 0.02 -0.04 0.01 -0.04 0.02 -0.04 0.01 -0.04 0.02 -0.04 0.02 -0.04 0.02 -0.04 0.01 -0.03 0.02 -0.04 0.02 -0.04 0.02 -0.04 0.03 -0.03 0.02 -0.04 0.02 -0.03 0.02 -0.04 0.03 -0.03 0.02 -0.04 0.03 -0.03 0.02 -0.04 0.03 -0.03 0.03 -0.03 0.03 -0.04 0.03 0.01 -0.01 -0.79 -0.86zm0.01 -0.01l0.77 0.88c-0.24,0.21 -0.61,0.19 -0.82,-0.05 -0.21,-0.25 -0.19,-0.61 0.05,-0.83zm-0.14 3.72l0 0 -0.03 -0.17 -0.03 -0.17 -0.02 -0.17 -0.03 -0.16 -0.02 -0.16 -0.02 -0.15 -0.02 -0.15 -0.02 -0.14 -0.02 -0.14 -0.01 -0.14 -0.01 -0.13 -0.02 -0.12 0 -0.13 -0.01 -0.12 -0.01 -0.11 0 -0.11 0 -0.11 0 -0.11 0.01 -0.1 0 -0.1 0.01 -0.09 0.01 -0.09 0.01 -0.09 0.02 -0.09 0.02 -0.09 0.02 -0.08 0.03 -0.09 0.04 -0.08 0.04 -0.08 0.06 -0.09 0.06 -0.08 0.07 -0.07 0.79 0.86 0.02 -0.02 0.01 -0.02 0.01 -0.01 0 0 -0.01 0.01 0 0.02 -0.01 0.03 -0.01 0.03 -0.01 0.04 0 0.05 -0.01 0.06 -0.01 0.06 0 0.07 0 0.07 0 0.08 0 0.09 0 0.09 0 0.1 0.01 0.1 0.01 0.11 0.01 0.11 0.01 0.12 0.01 0.12 0.02 0.13 0.01 0.13 0.02 0.14 0.02 0.14 0.02 0.15 0.03 0.16 0.02 0.15 0.03 0.17 0.03 0.16 0 0 -1.15 0.21zm0 0l1.15 -0.21c0.06,0.32 -0.15,0.62 -0.47,0.68 -0.32,0.06 -0.62,-0.15 -0.68,-0.47zm0.96 3.75l0 0 -0.03 -0.11 -0.04 -0.11 -0.04 -0.11 -0.03 -0.12 -0.04 -0.11 -0.03 -0.11 -0.04 -0.12 -0.03 -0.11 -0.04 -0.12 -0.03 -0.11 -0.03 -0.12 -0.04 -0.11 -0.03 -0.12 -0.03 -0.12 -0.03 -0.11 -0.03 -0.12 -0.03 -0.12 -0.03 -0.11 -0.03 -0.12 -0.03 -0.12 -0.02 -0.12 -0.03 -0.12 -0.03 -0.12 -0.02 -0.12 -0.03 -0.12 -0.02 -0.12 -0.03 -0.12 -0.02 -0.12 -0.03 -0.12 -0.02 -0.12 -0.02 -0.13 -0.03 -0.12 1.15 -0.21 0.02 0.12 0.03 0.12 0.02 0.12 0.02 0.11 0.02 0.12 0.03 0.11 0.02 0.12 0.03 0.11 0.02 0.12 0.03 0.11 0.02 0.12 0.03 0.11 0.03 0.11 0.02 0.12 0.03 0.11 0.03 0.11 0.03 0.11 0.03 0.11 0.03 0.12 0.03 0.11 0.03 0.11 0.03 0.11 0.03 0.11 0.03 0.11 0.04 0.11 0.03 0.1 0.03 0.11 0.04 0.11 0.03 0.11 0.04 0.11 0.03 0.1 0.04 0.11 0 0 -1.11 0.37zm0 0l1.11 -0.37c0.1,0.31 -0.06,0.64 -0.37,0.74 -0.3,0.1 -0.63,-0.06 -0.74,-0.37zm1.27 2.44l0 0 -0.05 -0.05 -0.05 -0.04 -0.05 -0.05 -0.04 -0.05 -0.04 -0.05 -0.05 -0.06 -0.04 -0.05 -0.04 -0.06 -0.04 -0.06 -0.04 -0.06 -0.04 -0.06 -0.03 -0.07 -0.04 -0.07 -0.04 -0.07 -0.04 -0.07 -0.04 -0.07 -0.03 -0.08 -0.04 -0.08 -0.04 -0.08 -0.04 -0.08 -0.03 -0.08 -0.04 -0.09 -0.04 -0.09 -0.03 -0.09 -0.04 -0.1 -0.04 -0.09 -0.04 -0.1 -0.03 -0.11 -0.04 -0.1 -0.04 -0.11 -0.04 -0.1 -0.04 -0.12 1.11 -0.37 0.03 0.1 0.04 0.11 0.04 0.1 0.03 0.09 0.04 0.1 0.03 0.09 0.03 0.09 0.04 0.08 0.03 0.08 0.03 0.08 0.04 0.08 0.03 0.08 0.03 0.07 0.03 0.07 0.04 0.06 0.03 0.06 0.03 0.06 0.03 0.06 0.03 0.06 0.03 0.05 0.02 0.04 0.03 0.05 0.03 0.04 0.02 0.04 0.03 0.03 0.02 0.03 0.02 0.03 0.02 0.03 0.02 0.02 0.02 0.02 0.02 0.01 0.01 0.01 -0.01 0 -0.75 0.89zm0 0l0.76 -0.89c0.24,0.21 0.27,0.58 0.06,0.83 -0.21,0.24 -0.58,0.27 -0.82,0.06zm2.16 0.61l0 0 -0.07 0.01 -0.07 0.01 -0.07 0.01 -0.08 0 -0.07 0.01 -0.07 0 -0.07 0 -0.07 0 -0.07 -0.01 -0.08 0 -0.07 -0.01 -0.07 -0.01 -0.07 -0.01 -0.07 -0.02 -0.07 -0.01 -0.07 -0.02 -0.07 -0.02 -0.06 -0.03 -0.07 -0.02 -0.07 -0.03 -0.07 -0.03 -0.06 -0.03 -0.07 -0.03 -0.06 -0.03 -0.06 -0.04 -0.07 -0.04 -0.06 -0.04 -0.06 -0.04 -0.06 -0.04 -0.06 -0.04 -0.06 -0.05 -0.06 -0.05 0.75 -0.89 0.04 0.03 0.04 0.03 0.04 0.03 0.03 0.02 0.04 0.03 0.04 0.02 0.03 0.02 0.04 0.03 0.04 0.01 0.03 0.02 0.04 0.02 0.04 0.01 0.03 0.02 0.04 0.01 0.03 0.01 0.04 0.02 0.04 0.01 0.03 0 0.04 0.01 0.04 0.01 0.03 0 0.04 0.01 0.04 0 0.04 0 0.03 0 0.04 0 0.04 0 0.04 0 0.04 0 0.04 -0.01 0.04 0 0.05 -0.01 0 0 0.2 1.15zm0 0l-0.2 -1.15c0.31,-0.06 0.62,0.15 0.67,0.47 0.06,0.32 -0.15,0.62 -0.47,0.68zm3.76 -2.47l0.01 -0.01 -0.13 0.13 -0.13 0.13 -0.13 0.12 -0.13 0.12 -0.12 0.12 -0.13 0.11 -0.12 0.11 -0.13 0.11 -0.12 0.1 -0.12 0.1 -0.12 0.1 -0.12 0.09 -0.12 0.09 -0.12 0.09 -0.12 0.08 -0.11 0.08 -0.12 0.08 -0.11 0.07 -0.12 0.07 -0.11 0.07 -0.12 0.06 -0.11 0.06 -0.11 0.05 -0.11 0.05 -0.12 0.05 -0.11 0.05 -0.11 0.04 -0.11 0.04 -0.11 0.03 -0.11 0.03 -0.11 0.03 -0.11 0.02 -0.2 -1.15 0.06 -0.01 0.08 -0.02 0.07 -0.02 0.07 -0.02 0.08 -0.03 0.08 -0.03 0.08 -0.03 0.09 -0.04 0.08 -0.04 0.09 -0.04 0.09 -0.05 0.09 -0.05 0.1 -0.05 0.09 -0.06 0.1 -0.06 0.1 -0.07 0.1 -0.07 0.1 -0.07 0.1 -0.07 0.11 -0.08 0.11 -0.09 0.1 -0.08 0.11 -0.09 0.11 -0.1 0.12 -0.1 0.11 -0.1 0.12 -0.1 0.12 -0.11 0.11 -0.11 0.12 -0.12 0.13 -0.12 0.12 -0.12 0.01 -0.01 0.81 0.84zm0.01 -0.01l-0.83 -0.82c0.22,-0.23 0.59,-0.23 0.82,-0.01 0.23,0.23 0.23,0.6 0.01,0.83zm1.39 -2.99l0.77 -0.04 0.04 0.88 -2.21 2.16 -0.81 -0.84 2.21 -2.16zm0.81 0.84l-0.81 -0.84c0.23,-0.22 0.6,-0.22 0.82,0.02 0.23,0.23 0.22,0.6 -0.01,0.82zm2.27 0.95l-0.72 0.92 0 0 -2.31 -1.83 0.72 -0.92 2.31 1.83zm-0.72 0.92l0.72 -0.92c0.26,0.2 0.3,0.57 0.1,0.82 -0.2,0.25 -0.57,0.3 -0.82,0.1zm1.89 1.29l0 0 -0.06 -0.03 -0.06 -0.03 -0.05 -0.04 -0.06 -0.03 -0.06 -0.04 -0.06 -0.03 -0.06 -0.04 -0.05 -0.04 -0.06 -0.03 -0.06 -0.04 -0.06 -0.04 -0.06 -0.04 -0.05 -0.04 -0.06 -0.04 -0.06 -0.04 -0.06 -0.04 -0.06 -0.04 -0.06 -0.04 -0.06 -0.04 -0.06 -0.04 -0.06 -0.04 -0.06 -0.05 -0.06 -0.04 -0.05 -0.04 -0.07 -0.05 -0.06 -0.04 -0.06 -0.05 -0.06 -0.04 -0.06 -0.05 -0.06 -0.05 -0.06 -0.04 -0.06 -0.05 0.72 -0.92 0.06 0.05 0.06 0.04 0.05 0.04 0.06 0.05 0.06 0.04 0.05 0.04 0.06 0.04 0.06 0.05 0.05 0.04 0.06 0.04 0.05 0.04 0.06 0.04 0.05 0.04 0.06 0.04 0.06 0.03 0.05 0.04 0.05 0.04 0.06 0.04 0.05 0.03 0.06 0.04 0.05 0.03 0.06 0.04 0.05 0.03 0.05 0.04 0.06 0.03 0.05 0.04 0.05 0.03 0.06 0.03 0.05 0.03 0.05 0.03 0.05 0.04 0.05 0.03 0 0 -0.58 1zm0 0l0.58 -1c0.28,0.16 0.38,0.52 0.21,0.79 -0.16,0.28 -0.52,0.38 -0.79,0.21zm1.49 0.54l0 0 -0.06 0.01 -0.06 0.01 -0.06 -0.01 -0.05 0 -0.04 0 -0.05 -0.01 -0.04 -0.01 -0.04 -0.01 -0.04 -0.01 -0.04 -0.01 -0.04 -0.02 -0.04 -0.01 -0.04 -0.01 -0.04 -0.02 -0.04 -0.02 -0.04 -0.01 -0.04 -0.02 -0.04 -0.02 -0.05 -0.02 -0.04 -0.02 -0.04 -0.02 -0.05 -0.02 -0.05 -0.03 -0.04 -0.02 -0.05 -0.03 -0.05 -0.03 -0.05 -0.02 -0.05 -0.03 -0.06 -0.03 -0.05 -0.03 -0.06 -0.03 -0.05 -0.04 0.58 -1 0.06 0.03 0.05 0.02 0.04 0.03 0.05 0.03 0.05 0.02 0.04 0.03 0.05 0.02 0.04 0.02 0.04 0.02 0.04 0.02 0.03 0.02 0.04 0.02 0.03 0.02 0.03 0.01 0.03 0.01 0.03 0.02 0.03 0.01 0.02 0.01 0.02 0.01 0.02 0 0.02 0.01 0.02 0 0.01 0.01 0.01 0 0 0 0 0 0 0 -0.01 0 -0.01 0 -0.02 0 -0.03 0 -0.03 0.01 0 0 0.21 1.14zm0 0l-0.21 -1.14c0.32,-0.06 0.62,0.15 0.68,0.47 0.06,0.31 -0.16,0.62 -0.47,0.67zm4.18 -5.08l0 0 -0.2 0.29 -0.19 0.29 -0.19 0.27 -0.18 0.26 -0.18 0.26 -0.17 0.25 -0.17 0.24 -0.16 0.23 -0.16 0.22 -0.15 0.21 -0.15 0.2 -0.14 0.2 -0.14 0.18 -0.13 0.18 -0.13 0.17 -0.12 0.15 -0.12 0.16 -0.12 0.14 -0.11 0.13 -0.1 0.13 -0.11 0.11 -0.09 0.11 -0.1 0.1 -0.09 0.1 -0.09 0.08 -0.08 0.08 -0.09 0.07 -0.09 0.07 -0.09 0.06 -0.09 0.06 -0.12 0.05 -0.13 0.03 -0.21 -1.14 -0.05 0.01 -0.02 0.01 0 -0.01 0.03 -0.01 0.04 -0.03 0.04 -0.04 0.06 -0.05 0.07 -0.07 0.07 -0.07 0.08 -0.09 0.08 -0.09 0.09 -0.1 0.1 -0.12 0.1 -0.12 0.11 -0.13 0.11 -0.15 0.12 -0.15 0.12 -0.16 0.13 -0.17 0.13 -0.18 0.14 -0.19 0.15 -0.2 0.15 -0.2 0.15 -0.22 0.16 -0.22 0.16 -0.24 0.17 -0.24 0.18 -0.26 0.18 -0.26 0.18 -0.27 0.19 -0.28 0.2 -0.29 0 0 0.97 0.65zm0 0l-0.97 -0.65c0.18,-0.27 0.54,-0.34 0.81,-0.16 0.26,0.18 0.33,0.54 0.16,0.81zm3.14 -5.78l0 0 0.01 0.14 0 0.12 -0.02 0.11 -0.02 0.1 -0.03 0.11 -0.04 0.1 -0.04 0.11 -0.05 0.12 -0.05 0.12 -0.06 0.12 -0.06 0.13 -0.07 0.14 -0.08 0.15 -0.08 0.15 -0.09 0.16 -0.1 0.17 -0.1 0.17 -0.1 0.19 -0.12 0.19 -0.12 0.19 -0.12 0.21 -0.13 0.21 -0.14 0.23 -0.15 0.22 -0.15 0.24 -0.16 0.25 -0.16 0.25 -0.17 0.26 -0.18 0.27 -0.18 0.27 -0.19 0.29 -0.19 0.29 -0.97 -0.65 0.19 -0.29 0.19 -0.28 0.18 -0.27 0.17 -0.27 0.17 -0.26 0.16 -0.25 0.16 -0.24 0.15 -0.23 0.14 -0.23 0.13 -0.21 0.13 -0.21 0.13 -0.2 0.11 -0.19 0.11 -0.19 0.11 -0.17 0.09 -0.17 0.09 -0.16 0.08 -0.15 0.08 -0.14 0.07 -0.13 0.06 -0.13 0.06 -0.11 0.05 -0.11 0.04 -0.09 0.04 -0.09 0.02 -0.07 0.02 -0.06 0.02 -0.05 0 -0.03 0.01 -0.01 0 0.02 0 0.05 0 0 1.15 -0.21zm0 0l-1.15 0.21c-0.06,-0.32 0.15,-0.62 0.47,-0.68 0.32,-0.05 0.62,0.16 0.68,0.47zm-1.64 -1.11l0 0 0.07 -0.01 0.07 -0.01 0.06 0 0.07 -0.01 0.07 0 0.07 0 0.07 0.01 0.07 0 0.07 0.01 0.06 0.02 0.07 0.02 0.07 0.02 0.07 0.02 0.06 0.03 0.06 0.04 0.07 0.04 0.06 0.04 0.05 0.04 0.05 0.05 0.05 0.06 0.05 0.05 0.04 0.06 0.04 0.06 0.04 0.06 0.03 0.06 0.03 0.06 0.03 0.06 0.02 0.07 0.02 0.06 0.02 0.07 0.02 0.07 0.01 0.06 -1.15 0.21 -0.01 -0.03 0 -0.03 -0.01 -0.02 0 -0.02 -0.01 -0.02 -0.01 -0.01 0 -0.01 -0.01 -0.01 0 -0.01 0 -0.01 -0.01 0 0 0 0 0 0 0 0 0 0 0 0 0 0 0 0 0 0 0 -0.01 0 -0.01 -0.01 -0.01 0 -0.01 0 -0.01 0 -0.02 0 -0.02 0 -0.02 0 -0.02 0 -0.03 0 -0.03 0.01 -0.03 0 0 0 -0.21 -1.15zm0 0l0.21 1.15c-0.32,0.06 -0.62,-0.15 -0.68,-0.47 -0.06,-0.32 0.15,-0.62 0.47,-0.68zm-4.63 3.72l-0.01 0 0.16 -0.2 0.16 -0.2 0.16 -0.19 0.16 -0.18 0.15 -0.18 0.16 -0.17 0.15 -0.17 0.15 -0.16 0.15 -0.16 0.15 -0.15 0.15 -0.15 0.14 -0.14 0.15 -0.13 0.14 -0.13 0.15 -0.13 0.14 -0.12 0.14 -0.11 0.15 -0.11 0.14 -0.11 0.14 -0.09 0.14 -0.1 0.13 -0.08 0.14 -0.08 0.14 -0.08 0.14 -0.07 0.14 -0.06 0.13 -0.06 0.14 -0.06 0.14 -0.04 0.14 -0.04 0.13 -0.04 0.14 -0.03 0.21 1.15 -0.09 0.02 -0.09 0.02 -0.09 0.03 -0.09 0.03 -0.1 0.04 -0.1 0.04 -0.1 0.05 -0.1 0.05 -0.11 0.06 -0.11 0.06 -0.11 0.07 -0.12 0.08 -0.11 0.08 -0.12 0.09 -0.13 0.09 -0.12 0.1 -0.13 0.11 -0.12 0.11 -0.13 0.12 -0.14 0.12 -0.13 0.13 -0.14 0.13 -0.13 0.14 -0.14 0.15 -0.14 0.15 -0.15 0.16 -0.14 0.16 -0.15 0.17 -0.15 0.17 -0.15 0.18 -0.15 0.19 -0.15 0.19 0 0 -0.91 -0.72zm-0.01 0l0.92 0.72c-0.2,0.26 -0.57,0.3 -0.82,0.1 -0.25,-0.2 -0.29,-0.57 -0.1,-0.82zm-1.54 3.84l-0.87 0.05 -0.05 -0.78 2.47 -3.11 0.91 0.72 -2.46 3.12zm-0.92 -0.73l0.92 0.73c-0.2,0.25 -0.57,0.29 -0.82,0.09 -0.26,-0.2 -0.3,-0.57 -0.1,-0.82zm-0.94 -0.18l0 -0.01 0.82 -0.82 0.99 0.96 -0.82 0.83 -0.99 -0.96zm0.82 -0.83l-0.82 0.83c-0.23,-0.22 -0.23,-0.59 -0.01,-0.82 0.23,-0.23 0.6,-0.24 0.83,-0.01zm-1.96 -1.84l-0.03 -0.02 0.05 0.04 0.05 0.05 0.06 0.04 0.05 0.05 0.06 0.05 0.05 0.05 0.06 0.04 0.06 0.06 0.05 0.05 0.06 0.05 0.06 0.05 0.06 0.06 0.06 0.05 0.06 0.06 0.06 0.05 0.06 0.06 0.07 0.06 0.06 0.06 0.06 0.06 0.07 0.06 0.06 0.06 0.07 0.07 0.07 0.06 0.06 0.07 0.07 0.06 0.07 0.07 0.07 0.07 0.07 0.07 0.07 0.07 0.07 0.07 0.07 0.07 0.07 0.07 -0.82 0.82 -0.07 -0.07 -0.07 -0.07 -0.07 -0.07 -0.07 -0.06 -0.07 -0.07 -0.07 -0.07 -0.06 -0.06 -0.07 -0.07 -0.06 -0.06 -0.07 -0.06 -0.06 -0.06 -0.07 -0.07 -0.06 -0.05 -0.06 -0.06 -0.06 -0.06 -0.06 -0.06 -0.06 -0.05 -0.06 -0.06 -0.06 -0.05 -0.06 -0.05 -0.05 -0.05 -0.06 -0.05 -0.05 -0.05 -0.06 -0.05 -0.05 -0.05 -0.06 -0.05 -0.05 -0.04 -0.05 -0.05 -0.05 -0.04 -0.05 -0.04 -0.05 -0.05 -0.05 -0.04 -0.03 -0.02 0.81 -0.85zm-0.03 -0.02l-0.75 0.89c-0.25,-0.2 -0.28,-0.57 -0.07,-0.82 0.2,-0.24 0.57,-0.28 0.82,-0.07zm-1.72 -0.04l0.01 -0.85 0.79 0.01 0.95 0.9 -0.81 0.85 -0.94 -0.91zm0.8 -0.84l-0.8 0.84c-0.23,-0.22 -0.24,-0.59 -0.02,-0.82 0.22,-0.23 0.59,-0.24 0.82,-0.02zm-2.22 2.85l-0.79 -0.86 0.01 -0.01 2.21 -1.99 0.78 0.87 -2.21 1.99zm-0.78 -0.87l0.78 0.87c-0.24,0.21 -0.61,0.2 -0.82,-0.04 -0.22,-0.24 -0.2,-0.61 0.04,-0.83zm-2.4 1.91l0 0 0 0 0 0 0.02 -0.01 0.02 -0.01 0.04 -0.01 0.03 -0.02 0.04 -0.02 0.05 -0.03 0.05 -0.03 0.06 -0.04 0.06 -0.03 0.06 -0.05 0.07 -0.04 0.07 -0.05 0.07 -0.06 0.08 -0.06 0.08 -0.06 0.09 -0.07 0.08 -0.07 0.09 -0.07 0.1 -0.08 0.09 -0.08 0.1 -0.08 0.11 -0.09 0.1 -0.09 0.11 -0.1 0.12 -0.1 0.11 -0.1 0.12 -0.11 0.12 -0.11 0.13 -0.11 0.12 -0.12 0.8 0.85 -0.13 0.12 -0.13 0.12 -0.13 0.12 -0.12 0.11 -0.12 0.1 -0.12 0.11 -0.11 0.1 -0.11 0.09 -0.11 0.1 -0.1 0.08 -0.11 0.09 -0.1 0.08 -0.1 0.08 -0.09 0.08 -0.09 0.07 -0.09 0.07 -0.09 0.07 -0.09 0.06 -0.08 0.06 -0.08 0.05 -0.08 0.06 -0.07 0.05 -0.08 0.04 -0.07 0.05 -0.07 0.04 -0.08 0.04 -0.07 0.03 -0.07 0.03 -0.07 0.03 -0.07 0.03 -0.08 0.02 -0.08 0.02 0.01 0 -0.21 -1.15zm0 0l0.2 1.15c-0.31,0.05 -0.62,-0.16 -0.67,-0.47 -0.06,-0.32 0.15,-0.62 0.47,-0.68zm-0.38 -0.64l0 0 0.03 0.06 0.03 0.05 0.03 0.06 0.03 0.05 0.02 0.04 0.03 0.04 0.03 0.05 0.02 0.04 0.03 0.03 0.02 0.03 0.03 0.03 0.02 0.03 0.02 0.03 0.02 0.02 0.02 0.02 0.02 0.02 0.01 0.01 0.01 0.01 0.02 0.01 0 0.01 0.01 0 0.01 0 0 0 0 0 -0.01 0 0 0 -0.01 0 -0.01 0 -0.01 0 -0.02 0 -0.01 0 -0.01 0 0.21 1.15 -0.08 0.01 -0.07 0 -0.07 0 -0.07 0 -0.07 -0.01 -0.07 -0.02 -0.07 -0.02 -0.06 -0.02 -0.06 -0.03 -0.07 -0.03 -0.05 -0.03 -0.06 -0.04 -0.05 -0.03 -0.05 -0.04 -0.05 -0.04 -0.05 -0.05 -0.04 -0.04 -0.04 -0.05 -0.05 -0.04 -0.04 -0.05 -0.04 -0.05 -0.04 -0.06 -0.04 -0.05 -0.04 -0.06 -0.04 -0.05 -0.04 -0.06 -0.03 -0.06 -0.04 -0.07 -0.04 -0.06 -0.03 -0.07 -0.04 -0.06 -0.04 -0.07 0 0 1.04 -0.54zm0 0l-1.04 0.54c-0.14,-0.29 -0.03,-0.64 0.26,-0.79 0.28,-0.15 0.63,-0.03 0.78,0.25zm-0.76 -2.44l0 0 0.02 0.1 0.02 0.09 0.02 0.09 0.02 0.09 0.02 0.09 0.02 0.09 0.01 0.09 0.03 0.08 0.02 0.09 0.02 0.08 0.02 0.09 0.02 0.08 0.02 0.08 0.03 0.08 0.02 0.08 0.02 0.07 0.03 0.08 0.02 0.07 0.03 0.08 0.02 0.07 0.03 0.07 0.02 0.07 0.03 0.07 0.03 0.07 0.02 0.06 0.03 0.07 0.03 0.06 0.03 0.06 0.02 0.07 0.03 0.06 0.03 0.06 0.03 0.05 -1.04 0.54 -0.03 -0.07 -0.04 -0.08 -0.03 -0.07 -0.04 -0.07 -0.03 -0.08 -0.03 -0.08 -0.04 -0.07 -0.03 -0.08 -0.03 -0.08 -0.03 -0.08 -0.03 -0.08 -0.03 -0.08 -0.03 -0.09 -0.03 -0.08 -0.02 -0.09 -0.03 -0.08 -0.03 -0.09 -0.02 -0.09 -0.03 -0.08 -0.02 -0.09 -0.03 -0.09 -0.02 -0.1 -0.03 -0.09 -0.02 -0.09 -0.02 -0.1 -0.02 -0.09 -0.02 -0.1 -0.03 -0.1 -0.02 -0.1 -0.02 -0.1 -0.01 -0.1 -0.02 -0.1 0 0 1.14 -0.21zm0 0l-1.14 0.21c-0.06,-0.32 0.15,-0.62 0.47,-0.68 0.31,-0.05 0.62,0.16 0.67,0.47zm-0.89 -2.12l-0.07 -0.05 0.06 0.04 0.06 0.05 0.06 0.04 0.05 0.05 0.04 0.05 0.04 0.05 0.04 0.05 0.04 0.05 0.04 0.06 0.03 0.05 0.03 0.06 0.03 0.06 0.03 0.06 0.03 0.06 0.02 0.06 0.03 0.07 0.02 0.06 0.03 0.07 0.02 0.07 0.02 0.07 0.02 0.08 0.03 0.07 0.02 0.08 0.02 0.08 0.02 0.09 0.02 0.08 0.02 0.09 0.02 0.09 0.02 0.09 0.02 0.1 0.02 0.09 0.01 0.1 -1.14 0.21 -0.02 -0.09 -0.02 -0.09 -0.01 -0.08 -0.02 -0.09 -0.02 -0.08 -0.02 -0.07 -0.01 -0.08 -0.02 -0.07 -0.02 -0.07 -0.02 -0.06 -0.01 -0.06 -0.02 -0.06 -0.02 -0.06 -0.02 -0.05 -0.01 -0.05 -0.02 -0.05 -0.02 -0.04 -0.02 -0.04 -0.01 -0.04 -0.02 -0.03 -0.01 -0.03 -0.02 -0.02 -0.01 -0.02 -0.01 -0.02 -0.01 -0.01 -0.01 -0.01 0 -0.01 0 0 0 0 0.01 0 0.01 0.01 0.01 0.01 -0.07 -0.05 0.71 -0.92zm-0.07 -0.05l-0.57 1.02c-0.28,-0.15 -0.38,-0.51 -0.23,-0.79 0.16,-0.28 0.52,-0.38 0.8,-0.23z"/>
    <path id="_1_2" class="fil4" d="M31.39 7.44c-0.22,-0.17 -0.56,-0.22 -1,-0.14 -0.59,0.1 -1.09,0.35 -1.52,0.73 -0.3,0.27 -0.29,1.33 0.05,3.18 0.23,1.28 0.54,2.5 0.94,3.67 0.39,1.16 0.75,1.89 1.09,2.18 0.51,0.42 1.07,0.58 1.68,0.47 0.94,-0.17 2.1,-0.94 3.45,-2.31l2.22 -2.16 2.31 1.83c0.63,0.49 1.24,0.91 1.82,1.25 0.58,0.34 0.95,0.5 1.09,0.47 0.42,-0.08 1.69,-1.69 3.8,-4.83 2.11,-3.15 3.13,-4.93 3.05,-5.35 -0.09,-0.53 -0.41,-0.74 -0.96,-0.64 -1.17,0.21 -2.6,1.38 -4.28,3.5l-2.46 3.11 -0.99 -0.96c-0.77,-0.77 -1.42,-1.38 -1.95,-1.82l-0.95 -0.91 -2.21 2c-1.39,1.29 -2.29,1.97 -2.69,2.04 -0.31,0.06 -0.65,-0.25 -1,-0.94 -0.35,-0.68 -0.62,-1.55 -0.81,-2.6 -0.18,-1.03 -0.41,-1.62 -0.68,-1.77z"/>
   </g>
   <path class="fil5" d="M9.4 22.19c0.01,-0.08 0.04,-0.14 0.09,-0.16 0.08,-0.04 0.17,-0.01 0.28,0.08 0.1,0.1 0.23,0.27 0.39,0.52 0.13,0.22 0.21,0.36 0.24,0.43 0.05,0.09 0.06,0.17 0.03,0.22 -0.01,0.05 -0.06,0.09 -0.13,0.12 -0.11,0.05 -0.24,0.08 -0.42,0.1 -0.17,0.01 -0.35,0 -0.53,-0.03 -0.22,-0.03 -0.35,-0.03 -0.42,0 -0.01,0 -0.01,0.01 -0.01,0.01 -0.02,0.05 0.02,0.22 0.12,0.5 0.06,0.2 0.1,0.33 0.1,0.38 0,0.05 -0.04,0.09 -0.11,0.12l-0.15 0.07 -0.31 -0.74c-0.22,-0.5 -0.33,-0.8 -0.33,-0.9 -0.01,-0.1 0.01,-0.16 0.07,-0.18 0.08,-0.04 0.24,0 0.46,0.13 0.16,0.09 0.36,0.16 0.6,0.22 0.25,0.06 0.41,0.07 0.48,0.04 0,0 0.01,-0.01 0.02,-0.02 0.01,-0.01 0,-0.05 -0.02,-0.1 -0.04,-0.07 -0.1,-0.18 -0.2,-0.31 -0.1,-0.16 -0.17,-0.27 -0.21,-0.36 -0.03,-0.06 -0.05,-0.11 -0.04,-0.14z"/>
   <path class="fil5" d="M7.35 23.24c0.01,-0.04 0.04,-0.08 0.1,-0.11 0.04,-0.02 0.09,-0.04 0.14,-0.04 0.05,-0.01 0.08,0 0.11,0.02 0.05,0.05 0.12,0.17 0.22,0.34 0.09,0.18 0.19,0.33 0.29,0.43 0.04,0.04 0.07,0.08 0.09,0.12 0.03,0.06 0.04,0.11 0.03,0.16 -0.01,0.05 -0.03,0.08 -0.07,0.1 -0.05,0.03 -0.11,0.03 -0.19,0.01 -0.07,-0.01 -0.14,-0.06 -0.21,-0.12 -0.11,-0.1 -0.23,-0.29 -0.38,-0.57 -0.1,-0.19 -0.15,-0.3 -0.13,-0.34z"/>
   <path class="fil5" d="M10.83 21.34c0.24,-0.11 0.43,-0.19 0.58,-0.24l0.07 -0.02c0.12,-0.04 0.2,-0.05 0.23,-0.04 0.03,0.01 0.07,0.06 0.11,0.15 0.02,0.05 0.03,0.08 0.04,0.09 0.01,0.05 0.01,0.08 -0.01,0.1 -0.03,0.03 -0.08,0.05 -0.18,0.08 -0.13,0.05 -0.21,0.09 -0.25,0.12 -0.04,0.03 -0.05,0.09 -0.03,0.16 0.03,0.07 0.12,0.21 0.27,0.44 0.18,0.26 0.29,0.45 0.33,0.56 0.04,0.13 0.02,0.22 -0.05,0.29 0,0 -0.01,0.01 -0.03,0.01 -0.06,0.03 -0.14,0.01 -0.24,-0.05 -0.09,-0.05 -0.15,-0.12 -0.18,-0.19 -0.02,-0.08 -0.12,-0.25 -0.31,-0.53 -0.18,-0.28 -0.28,-0.43 -0.31,-0.44 -0.01,0 -0.02,0 -0.04,0 -0.06,0.03 -0.15,0.07 -0.25,0.14 -0.11,0.06 -0.2,0.1 -0.28,0.13 -0.05,0.01 -0.07,0.02 -0.09,0.02 -0.04,0 -0.09,-0.03 -0.14,-0.07 -0.05,-0.05 -0.08,-0.09 -0.1,-0.14 -0.01,-0.02 -0.01,-0.04 0,-0.05 0.02,-0.04 0.12,-0.11 0.29,-0.22 0.18,-0.11 0.37,-0.21 0.57,-0.3z"/>
   <path class="fil5" d="M12.65 20.61c0.11,-0.07 0.19,-0.11 0.24,-0.13 0.04,-0.01 0.09,-0.01 0.15,0 0.07,0 0.11,0.02 0.12,0.06 0.03,0.08 -0.06,0.2 -0.26,0.37 -0.11,0.1 -0.18,0.17 -0.22,0.23 -0.04,0.05 -0.05,0.1 -0.04,0.15 0.02,0.07 0.05,0.09 0.08,0.08 0.02,0 0.05,-0.02 0.09,-0.04 0.11,-0.07 0.2,-0.12 0.27,-0.14 0.11,-0.03 0.17,-0.02 0.19,0.05 0.01,0.04 0,0.1 -0.05,0.18 -0.04,0.08 -0.12,0.17 -0.22,0.26 -0.2,0.18 -0.29,0.3 -0.27,0.37 0.01,0.04 0.05,0.07 0.12,0.1 0.03,0.02 0.07,0.02 0.11,0.01 0.06,-0.02 0.13,-0.06 0.23,-0.13 0.23,-0.17 0.39,-0.26 0.48,-0.29 0.06,-0.02 0.1,0 0.11,0.04 0.01,0.05 -0.01,0.13 -0.07,0.24 -0.06,0.11 -0.14,0.21 -0.23,0.29 -0.07,0.07 -0.18,0.13 -0.34,0.17 -0.22,0.06 -0.39,0.07 -0.5,0.01 -0.08,-0.03 -0.14,-0.07 -0.17,-0.12 -0.03,-0.06 -0.07,-0.17 -0.12,-0.35 -0.01,-0.02 -0.02,-0.06 -0.03,-0.11 -0.02,-0.06 -0.03,-0.1 -0.04,-0.14 -0.1,-0.37 -0.15,-0.63 -0.15,-0.78 0,-0.15 0.06,-0.24 0.16,-0.27 0.02,0 0.03,-0.01 0.04,-0.01 0.04,0 0.09,-0.01 0.13,-0.02 0.08,-0.02 0.15,-0.05 0.19,-0.08z"/>
   <path class="fil5" d="M14.88 20.52c-0.07,-0.03 -0.12,-0.04 -0.17,-0.03 -0.05,0.01 -0.11,0.05 -0.18,0.11 -0.05,0.05 -0.07,0.11 -0.05,0.19 0.01,0.05 0.02,0.09 0.04,0.15 0.05,0.13 0.09,0.19 0.12,0.18 0.01,0 0.04,-0.02 0.08,-0.06 0.07,-0.07 0.13,-0.17 0.19,-0.3 0.03,-0.09 0.05,-0.15 0.04,-0.18 0,-0.02 -0.03,-0.04 -0.07,-0.06zm-0.67 -0.2c0.23,-0.13 0.43,-0.21 0.58,-0.24 0.31,-0.05 0.49,0.09 0.55,0.43 0.02,0.09 0.02,0.2 0.02,0.33 0,0.06 0,0.11 0,0.14 0.01,0.06 0.06,0.11 0.14,0.15 0.09,0.04 0.3,0.13 0.64,0.26 0.17,0.07 0.25,0.14 0.27,0.21 0.01,0.08 -0.03,0.13 -0.13,0.14 -0.18,0.03 -0.43,-0.03 -0.76,-0.18 -0.15,-0.07 -0.26,-0.12 -0.33,-0.14 -0.06,-0.02 -0.11,-0.03 -0.15,-0.02 -0.03,0 -0.08,0.03 -0.15,0.08 -0.05,0.04 -0.09,0.08 -0.11,0.11 -0.02,0.03 -0.02,0.07 -0.01,0.12 0.01,0.03 0.02,0.1 0.05,0.2 0.03,0.09 0.05,0.16 0.06,0.19 0.01,0.09 -0.01,0.14 -0.06,0.17 -0.02,0.01 -0.04,0.02 -0.06,0.02 -0.07,0.01 -0.14,-0.03 -0.21,-0.14 -0.07,-0.11 -0.15,-0.29 -0.23,-0.55 -0.14,-0.38 -0.23,-0.6 -0.28,-0.67 -0.06,-0.07 -0.1,-0.16 -0.11,-0.26 -0.01,-0.07 0,-0.12 0.03,-0.16 0.04,-0.05 0.12,-0.11 0.25,-0.19z"/>
   <path class="fil5" d="M17.23 20.12c-0.05,-0.11 -0.1,-0.15 -0.14,-0.15 -0.04,0.01 -0.07,0.04 -0.08,0.11 -0.02,0.08 -0.03,0.15 -0.02,0.2 0.01,0.1 0.07,0.14 0.18,0.13 0.06,-0.01 0.1,-0.02 0.12,-0.03 0.02,-0.01 0.03,-0.03 0.02,-0.07 0,-0.03 -0.03,-0.1 -0.08,-0.19zm-0.61 -0.24l0.12 -0.65 0.22 -0.03c0.11,-0.01 0.18,0 0.22,0.03 0.05,0.03 0.11,0.12 0.21,0.28 0.13,0.21 0.27,0.53 0.41,0.95 0.14,0.42 0.22,0.67 0.23,0.73 0.01,0.05 0,0.09 -0.02,0.1 -0.02,0.02 -0.05,0.03 -0.11,0.03 -0.07,0.01 -0.14,0 -0.18,-0.05 -0.05,-0.04 -0.11,-0.13 -0.18,-0.28 -0.04,-0.07 -0.07,-0.11 -0.11,-0.13 -0.04,-0.01 -0.12,-0.02 -0.22,0 -0.14,0.01 -0.24,0.05 -0.29,0.11 -0.06,0.05 -0.08,0.13 -0.07,0.24 0.01,0.06 0,0.1 -0.02,0.12 -0.03,0.03 -0.08,0.04 -0.16,0.05 -0.08,0.01 -0.13,0.01 -0.16,-0.01 -0.02,-0.02 -0.04,-0.07 -0.05,-0.15 -0.01,-0.09 -0.01,-0.22 0.01,-0.39 0.03,-0.16 0.08,-0.48 0.15,-0.95z"/>
   <path class="fil5" d="M18.85 19.5c0.13,-0.12 0.27,-0.18 0.42,-0.18 0.12,-0.01 0.23,0.02 0.33,0.09 0.1,0.07 0.16,0.17 0.2,0.3 0.02,0.06 0.03,0.1 0.03,0.12 0,0.06 -0.02,0.08 -0.06,0.09 -0.03,0 -0.09,-0.03 -0.16,-0.07 -0.1,-0.06 -0.2,-0.09 -0.28,-0.09 -0.15,0.01 -0.29,0.12 -0.44,0.32 -0.13,0.19 -0.2,0.38 -0.19,0.56 0.01,0.12 0.04,0.24 0.11,0.36 0.03,0.05 0.05,0.08 0.07,0.1 0.01,0.02 0.03,0.04 0.05,0.05 0.03,0.01 0.05,0.02 0.08,0.02 0.06,0 0.21,-0.06 0.45,-0.16 0.24,-0.11 0.39,-0.17 0.46,-0.17 0.04,0 0.09,0.01 0.14,0.04 0.04,0.02 0.05,0.05 0.06,0.09 0,0.05 -0.05,0.12 -0.14,0.19 -0.09,0.08 -0.22,0.15 -0.38,0.22 -0.22,0.1 -0.39,0.15 -0.52,0.15 -0.15,0.01 -0.29,-0.05 -0.43,-0.19 -0.11,-0.11 -0.2,-0.22 -0.25,-0.32 -0.05,-0.1 -0.08,-0.21 -0.08,-0.34 -0.01,-0.14 0.05,-0.35 0.17,-0.61 0.12,-0.27 0.24,-0.46 0.36,-0.57z"/>
   <path class="fil5" d="M21.38 20.36c-0.06,-0.05 -0.17,-0.09 -0.32,-0.11 -0.06,-0.01 -0.11,-0.01 -0.14,-0.01 -0.04,0 -0.07,0.01 -0.09,0.04 -0.02,0.02 -0.03,0.08 -0.05,0.18 -0.01,0.07 -0.01,0.13 -0.01,0.17 0,0.11 0.02,0.2 0.05,0.29 0.04,0.08 0.08,0.12 0.14,0.13l0.01 0c0.07,0 0.17,-0.05 0.3,-0.15 0.13,-0.11 0.2,-0.23 0.2,-0.35 0,-0.08 -0.03,-0.14 -0.09,-0.19zm-0.77 -0.5c0.07,-0.05 0.11,-0.08 0.13,-0.08 0.02,0 0.09,0.03 0.2,0.09 0.12,0.07 0.26,0.11 0.41,0.13 0.16,0.03 0.29,0.1 0.39,0.21 0.1,0.11 0.15,0.24 0.15,0.38 0,0.1 -0.02,0.2 -0.07,0.29 -0.08,0.14 -0.2,0.27 -0.38,0.39 -0.18,0.12 -0.34,0.18 -0.48,0.18 -0.1,0 -0.18,-0.01 -0.24,-0.04 -0.06,-0.03 -0.13,-0.09 -0.22,-0.19 -0.07,-0.08 -0.12,-0.15 -0.15,-0.19 -0.02,-0.05 -0.03,-0.1 -0.03,-0.17 0,-0.04 0.01,-0.12 0.02,-0.23 0.04,-0.41 0.13,-0.66 0.27,-0.77z"/>
   <path class="fil5" d="M22.84 19.41c0.12,-0.04 0.21,-0.05 0.26,-0.05 0.04,0 0.09,0.01 0.15,0.04 0.06,0.02 0.1,0.06 0.09,0.1 0,0.08 -0.12,0.17 -0.35,0.27 -0.14,0.06 -0.23,0.11 -0.29,0.15 -0.05,0.04 -0.08,0.09 -0.08,0.13 0,0.07 0.02,0.11 0.05,0.11 0.02,0 0.05,-0.01 0.1,-0.02 0.13,-0.04 0.23,-0.05 0.31,-0.05 0.11,0 0.16,0.04 0.16,0.1 0,0.05 -0.04,0.1 -0.1,0.16 -0.07,0.06 -0.16,0.12 -0.29,0.18 -0.24,0.11 -0.37,0.2 -0.37,0.28 0,0.04 0.03,0.08 0.08,0.13 0.03,0.02 0.07,0.04 0.11,0.04 0.06,0 0.14,-0.02 0.26,-0.06 0.27,-0.09 0.45,-0.13 0.54,-0.13 0.06,0 0.1,0.03 0.1,0.07 -0.01,0.05 -0.05,0.12 -0.14,0.21 -0.1,0.09 -0.2,0.16 -0.3,0.21 -0.1,0.04 -0.22,0.06 -0.38,0.06 -0.23,-0.01 -0.39,-0.05 -0.49,-0.14 -0.06,-0.05 -0.1,-0.11 -0.12,-0.17 -0.02,-0.06 -0.02,-0.18 -0.02,-0.37 0,-0.02 0.01,-0.06 0.01,-0.11 0,-0.06 0,-0.11 0.01,-0.14 0.01,-0.39 0.04,-0.65 0.09,-0.79 0.04,-0.15 0.12,-0.22 0.22,-0.21 0.02,0 0.04,0 0.05,0 0.04,0.01 0.08,0.02 0.13,0.02 0.08,0 0.15,-0.01 0.21,-0.02z"/>
   <path class="fil5" d="M24.32 19.72c0.05,-0.02 0.12,-0.02 0.21,-0.01 0.21,0.01 0.35,0.06 0.43,0.14 0.05,0.05 0.08,0.12 0.07,0.19 0,0 0,0.01 0,0.01 0,0.01 0,0.01 0,0.01 -0.02,0.05 -0.03,0.08 -0.06,0.1 -0.02,0.01 -0.07,0.01 -0.13,0.01 -0.05,0 -0.09,-0.01 -0.12,-0.01 -0.02,-0.01 -0.05,-0.01 -0.08,-0.01 -0.12,-0.01 -0.21,0 -0.28,0.04 -0.06,0.03 -0.1,0.08 -0.1,0.15 -0.01,0.08 0.03,0.18 0.12,0.29 0.08,0.11 0.2,0.21 0.37,0.31 0.12,0.07 0.21,0.15 0.28,0.23 0.06,0.08 0.09,0.16 0.09,0.23 0,0.01 -0.01,0.03 -0.01,0.05 -0.04,0.09 -0.19,0.19 -0.46,0.3 -0.26,0.11 -0.47,0.17 -0.6,0.16 -0.11,-0.01 -0.19,-0.04 -0.25,-0.09 -0.07,-0.04 -0.1,-0.1 -0.1,-0.16 0.01,-0.02 0.01,-0.04 0.03,-0.07 0.02,-0.06 0.11,-0.09 0.27,-0.08 0.16,0.01 0.29,-0.01 0.39,-0.07l0.16 -0.09 -0.35 -0.4c-0.15,-0.17 -0.25,-0.29 -0.29,-0.36 -0.04,-0.08 -0.06,-0.16 -0.05,-0.26 0.01,-0.12 0.06,-0.25 0.15,-0.37 0.09,-0.12 0.19,-0.2 0.31,-0.24z"/>
   <path class="fil5" d="M27.88 20.39c-0.07,-0.05 -0.16,-0.09 -0.28,-0.13 -0.12,-0.05 -0.22,-0.07 -0.31,-0.08 -0.06,0 -0.09,0 -0.11,0.01 -0.02,0.03 -0.04,0.09 -0.05,0.21 0,0.07 -0.01,0.15 -0.01,0.23 0,0.31 0.01,0.52 0.02,0.63 0.02,0.12 0.05,0.18 0.1,0.18 0.04,0.01 0.09,-0.01 0.14,-0.05 0.06,-0.04 0.15,-0.12 0.27,-0.22 0.22,-0.19 0.33,-0.36 0.35,-0.51 0.01,-0.11 -0.03,-0.19 -0.12,-0.27zm-1.2 -0.49c0.03,-0.08 0.2,-0.11 0.49,-0.08 0.35,0.03 0.63,0.11 0.82,0.24 0.31,0.2 0.45,0.43 0.42,0.71 0,0.04 -0.01,0.09 -0.02,0.13 -0.06,0.22 -0.25,0.43 -0.56,0.65 -0.32,0.22 -0.58,0.32 -0.8,0.3 -0.01,-0.01 -0.04,-0.01 -0.07,-0.02 -0.12,-0.03 -0.19,-0.34 -0.22,-0.91 -0.01,-0.28 -0.03,-0.51 -0.07,-0.69 -0.01,-0.09 -0.01,-0.17 -0.01,-0.25 0.01,-0.04 0.01,-0.07 0.02,-0.08zm2.67 0.12c0.13,-0.02 0.22,-0.03 0.27,-0.03 0.04,0.01 0.09,0.02 0.14,0.05 0.07,0.03 0.1,0.07 0.09,0.11 -0.01,0.08 -0.13,0.16 -0.37,0.24 -0.14,0.05 -0.24,0.1 -0.3,0.13 -0.05,0.04 -0.08,0.08 -0.08,0.13 -0.01,0.07 0,0.11 0.04,0.11 0.02,0 0.05,0 0.1,-0.01 0.13,-0.03 0.23,-0.04 0.3,-0.03 0.11,0.01 0.17,0.05 0.16,0.11 -0.01,0.05 -0.04,0.1 -0.11,0.16 -0.07,0.05 -0.17,0.11 -0.3,0.15 -0.25,0.1 -0.38,0.18 -0.39,0.26 0,0.03 0.02,0.08 0.07,0.13 0.03,0.03 0.07,0.04 0.11,0.05 0.05,0 0.14,-0.01 0.26,-0.04 0.27,-0.07 0.45,-0.1 0.55,-0.09 0.06,0 0.09,0.03 0.09,0.07 0,0.05 -0.06,0.12 -0.15,0.2 -0.1,0.08 -0.21,0.15 -0.32,0.19 -0.09,0.04 -0.22,0.05 -0.38,0.03 -0.23,-0.02 -0.38,-0.08 -0.47,-0.17 -0.07,-0.06 -0.1,-0.11 -0.11,-0.18 -0.02,-0.06 -0.01,-0.18 0.01,-0.36 0,-0.03 0,-0.07 0.01,-0.12 0.01,-0.06 0.01,-0.1 0.01,-0.14 0.05,-0.38 0.1,-0.64 0.15,-0.78 0.06,-0.14 0.14,-0.21 0.24,-0.2 0.02,0.01 0.04,0.01 0.05,0.01 0.04,0.02 0.08,0.02 0.12,0.03 0.09,0.01 0.16,0 0.21,-0.01z"/>
   <path class="fil5" d="M31.01 20.6c0.01,-0.06 0.04,-0.09 0.09,-0.08 0.05,0 0.13,0.05 0.22,0.15 0.09,0.09 0.19,0.22 0.29,0.38 0.24,0.35 0.36,0.52 0.37,0.54 0,0 0.01,0 0.01,0 0.05,0.01 0.14,-0.1 0.27,-0.33 0.16,-0.27 0.26,-0.41 0.31,-0.43 0.02,-0.01 0.05,-0.02 0.07,-0.02 0.06,0.01 0.11,0.03 0.16,0.08 0.04,0.05 0.07,0.1 0.06,0.16 0,0.06 -0.11,0.26 -0.31,0.6 -0.2,0.34 -0.32,0.53 -0.37,0.55 -0.02,0.01 -0.04,0.01 -0.07,0.01 -0.07,0 -0.16,-0.05 -0.27,-0.15 -0.11,-0.09 -0.21,-0.2 -0.29,-0.33 -0.08,-0.12 -0.21,-0.32 -0.37,-0.58 -0.07,-0.12 -0.12,-0.21 -0.14,-0.28 -0.03,-0.06 -0.04,-0.13 -0.03,-0.2 0,-0.03 0,-0.06 0,-0.07z"/>
   <path class="fil5" d="M33.7 20.45c0.13,-0.04 0.22,-0.06 0.26,-0.06 0.05,0.01 0.1,0.02 0.16,0.04 0.06,0.03 0.09,0.06 0.09,0.1 0,0.08 -0.12,0.17 -0.36,0.27 -0.13,0.06 -0.23,0.11 -0.28,0.15 -0.05,0.05 -0.08,0.09 -0.08,0.14 0,0.07 0.02,0.1 0.05,0.1 0.02,0.01 0.05,0 0.1,-0.01 0.12,-0.04 0.23,-0.06 0.3,-0.06 0.11,0.01 0.17,0.04 0.17,0.11 -0.01,0.04 -0.04,0.1 -0.11,0.16 -0.06,0.06 -0.16,0.12 -0.28,0.18 -0.24,0.11 -0.37,0.2 -0.37,0.27 0,0.04 0.03,0.09 0.08,0.13 0.03,0.03 0.07,0.04 0.11,0.05 0.05,0 0.14,-0.02 0.26,-0.06 0.26,-0.09 0.44,-0.14 0.54,-0.13 0.06,0 0.09,0.02 0.09,0.07 0,0.05 -0.05,0.12 -0.14,0.21 -0.09,0.08 -0.19,0.15 -0.3,0.21 -0.09,0.04 -0.22,0.06 -0.37,0.06 -0.23,-0.01 -0.39,-0.06 -0.49,-0.14 -0.07,-0.06 -0.11,-0.11 -0.12,-0.17 -0.02,-0.06 -0.02,-0.18 -0.02,-0.37 0,-0.02 0,-0.06 0.01,-0.12 0,-0.06 0,-0.1 0,-0.14 0.02,-0.38 0.05,-0.64 0.1,-0.79 0.04,-0.14 0.12,-0.21 0.22,-0.21 0.02,0 0.04,0 0.05,0.01 0.04,0.01 0.08,0.01 0.13,0.01 0.08,0.01 0.15,0 0.2,-0.01z"/>
   <path class="fil5" d="M35.51 20.92c-0.06,-0.04 -0.11,-0.05 -0.16,-0.05 -0.05,0 -0.11,0.03 -0.19,0.08 -0.05,0.05 -0.08,0.11 -0.08,0.19 0,0.04 0.01,0.09 0.03,0.15 0.03,0.13 0.06,0.2 0.09,0.2 0.01,-0.01 0.04,-0.02 0.09,-0.06 0.08,-0.06 0.15,-0.15 0.22,-0.27 0.05,-0.09 0.07,-0.14 0.07,-0.17 0,-0.03 -0.02,-0.05 -0.07,-0.07zm-0.63 -0.28c0.24,-0.11 0.45,-0.16 0.6,-0.17 0.31,-0.01 0.48,0.15 0.49,0.49 0.01,0.1 0,0.21 -0.02,0.33 -0.01,0.07 -0.01,0.11 -0.01,0.14 0,0.06 0.04,0.12 0.12,0.17 0.08,0.05 0.28,0.17 0.6,0.34 0.15,0.09 0.23,0.17 0.23,0.25 0.01,0.07 -0.04,0.11 -0.14,0.12 -0.18,0.01 -0.42,-0.09 -0.73,-0.28 -0.14,-0.09 -0.25,-0.15 -0.31,-0.18 -0.06,-0.03 -0.11,-0.04 -0.15,-0.04 -0.03,0 -0.08,0.02 -0.15,0.06 -0.06,0.04 -0.11,0.07 -0.13,0.1 -0.02,0.02 -0.03,0.06 -0.02,0.11 0,0.04 0.01,0.11 0.03,0.21 0.01,0.09 0.02,0.16 0.03,0.2 0,0.08 -0.03,0.13 -0.08,0.16 -0.03,0.01 -0.05,0.01 -0.07,0.01 -0.07,0 -0.13,-0.05 -0.19,-0.17 -0.05,-0.11 -0.11,-0.3 -0.16,-0.57 -0.09,-0.4 -0.15,-0.63 -0.19,-0.7 -0.05,-0.08 -0.08,-0.17 -0.08,-0.28 0,-0.06 0.02,-0.11 0.06,-0.15 0.04,-0.04 0.13,-0.09 0.27,-0.15z"/>
   <path class="fil5" d="M38.05 20.75c-0.07,-0.03 -0.17,-0.05 -0.3,-0.07 -0.13,-0.01 -0.23,-0.01 -0.32,0 -0.05,0.01 -0.09,0.02 -0.1,0.04 -0.02,0.02 -0.02,0.09 0,0.21 0.01,0.07 0.02,0.14 0.04,0.23 0.08,0.3 0.13,0.5 0.17,0.61 0.04,0.11 0.09,0.16 0.14,0.15 0.03,0 0.08,-0.03 0.12,-0.09 0.05,-0.05 0.12,-0.14 0.21,-0.27 0.17,-0.24 0.24,-0.43 0.22,-0.58 -0.01,-0.1 -0.07,-0.18 -0.18,-0.23zm-1.28 -0.2c0.02,-0.09 0.17,-0.15 0.47,-0.19 0.34,-0.05 0.63,-0.04 0.85,0.04 0.34,0.12 0.53,0.32 0.57,0.59 0.01,0.05 0.01,0.09 0.01,0.14 -0.01,0.22 -0.14,0.47 -0.4,0.76 -0.25,0.28 -0.49,0.44 -0.7,0.47 -0.02,0 -0.04,0 -0.08,0 -0.12,0 -0.26,-0.28 -0.42,-0.83 -0.08,-0.28 -0.15,-0.49 -0.23,-0.66 -0.03,-0.08 -0.05,-0.16 -0.06,-0.24 -0.01,-0.04 -0.01,-0.07 -0.01,-0.08z"/>
   <path class="fil5" d="M39.6 20.41c-0.07,-0.09 -0.12,-0.14 -0.16,-0.13 -0.04,0.01 -0.06,0.05 -0.07,0.11 -0.01,0.08 -0.01,0.15 0,0.21 0.02,0.09 0.08,0.13 0.18,0.11 0.06,-0.01 0.1,-0.02 0.12,-0.04 0.02,-0.01 0.03,-0.03 0.02,-0.07 -0.01,-0.03 -0.04,-0.1 -0.09,-0.19zm-0.63 -0.19l0.07 -0.66 0.22 -0.04c0.11,-0.02 0.18,-0.02 0.23,0.01 0.04,0.03 0.12,0.12 0.22,0.27 0.15,0.2 0.3,0.5 0.47,0.91 0.18,0.42 0.27,0.66 0.29,0.72 0.01,0.05 0,0.09 -0.02,0.1 -0.01,0.02 -0.05,0.03 -0.1,0.04 -0.08,0.02 -0.14,0 -0.19,-0.03 -0.05,-0.04 -0.11,-0.13 -0.2,-0.27 -0.04,-0.07 -0.08,-0.11 -0.12,-0.13 -0.04,-0.01 -0.11,-0.01 -0.22,0.02 -0.13,0.02 -0.23,0.06 -0.28,0.12 -0.05,0.06 -0.07,0.15 -0.05,0.25 0.01,0.06 0.01,0.1 -0.01,0.13 -0.03,0.02 -0.07,0.04 -0.15,0.05 -0.09,0.02 -0.14,0.02 -0.17,0 -0.02,-0.01 -0.04,-0.06 -0.06,-0.14 -0.02,-0.09 -0.02,-0.22 -0.01,-0.39 0.01,-0.16 0.04,-0.49 0.08,-0.96z"/>
   <path class="fil5" d="M41.47 19.98c-0.08,-0.02 -0.18,-0.02 -0.31,-0.01 -0.12,0.01 -0.23,0.02 -0.31,0.05 -0.06,0.02 -0.09,0.04 -0.1,0.06 -0.01,0.02 0.01,0.09 0.04,0.2 0.02,0.07 0.05,0.14 0.08,0.22 0.13,0.28 0.22,0.47 0.27,0.57 0.06,0.1 0.11,0.14 0.16,0.13 0.04,-0.01 0.07,-0.05 0.11,-0.11 0.04,-0.06 0.09,-0.16 0.16,-0.3 0.12,-0.27 0.16,-0.47 0.12,-0.61 -0.03,-0.1 -0.11,-0.17 -0.22,-0.2zm-1.29 0.02c0,-0.09 0.14,-0.18 0.42,-0.27 0.33,-0.1 0.62,-0.14 0.85,-0.1 0.36,0.06 0.58,0.22 0.66,0.49 0.02,0.04 0.03,0.08 0.03,0.13 0.03,0.22 -0.05,0.49 -0.26,0.82 -0.2,0.32 -0.4,0.52 -0.61,0.58 -0.01,0.01 -0.04,0.01 -0.07,0.02 -0.12,0.01 -0.31,-0.24 -0.57,-0.75 -0.12,-0.26 -0.23,-0.46 -0.33,-0.61 -0.05,-0.07 -0.08,-0.15 -0.1,-0.22 -0.02,-0.05 -0.02,-0.07 -0.02,-0.09z"/>
   <path class="fil5" d="M42.48 19.05c0.1,-0.08 0.18,-0.13 0.22,-0.15 0.04,-0.02 0.1,-0.02 0.16,-0.02 0.07,-0.01 0.11,0.01 0.13,0.05 0.03,0.08 -0.05,0.2 -0.23,0.39 -0.1,0.11 -0.17,0.19 -0.2,0.25 -0.03,0.06 -0.04,0.11 -0.02,0.16 0.03,0.06 0.06,0.09 0.09,0.07 0.01,0 0.04,-0.02 0.08,-0.05 0.1,-0.09 0.19,-0.14 0.26,-0.17 0.1,-0.04 0.17,-0.03 0.19,0.03 0.02,0.04 0.01,0.11 -0.03,0.19 -0.04,0.08 -0.1,0.17 -0.19,0.27 -0.18,0.2 -0.26,0.34 -0.23,0.41 0.01,0.03 0.05,0.06 0.12,0.08 0.04,0.02 0.08,0.01 0.12,0 0.05,-0.02 0.12,-0.07 0.21,-0.16 0.21,-0.18 0.36,-0.29 0.45,-0.33 0.06,-0.02 0.1,-0.01 0.11,0.03 0.02,0.05 0.01,0.13 -0.04,0.25 -0.05,0.11 -0.12,0.22 -0.2,0.31 -0.07,0.07 -0.17,0.14 -0.32,0.2 -0.21,0.08 -0.38,0.1 -0.5,0.06 -0.08,-0.02 -0.14,-0.06 -0.18,-0.11 -0.04,-0.04 -0.09,-0.16 -0.16,-0.33 -0.01,-0.02 -0.02,-0.06 -0.04,-0.11 -0.02,-0.05 -0.04,-0.1 -0.05,-0.13 -0.14,-0.36 -0.21,-0.61 -0.22,-0.76 -0.02,-0.15 0.02,-0.25 0.12,-0.28 0.02,-0.01 0.04,-0.02 0.05,-0.02 0.04,0 0.08,-0.02 0.12,-0.03 0.08,-0.03 0.14,-0.07 0.18,-0.1z"/>
   <path class="fil5" d="M22.02 19.16c0.02,0.04 0.09,0.12 0.03,0.17 -0.29,0.24 -0.34,-0.17 -0.52,-0.16 -0.07,0 -0.14,0.04 -0.22,0.11 -0.08,0.08 -0.14,0.29 -0.28,0.32 -0.54,0.13 -0.78,-0.36 -0.76,-0.47 0.02,-0.1 0.01,-0.15 0.04,-0.2 0.03,-0.06 0.08,-0.09 0.13,-0.09 0.01,0 0.03,0 0.05,0.01 0.05,0.02 0.04,0.1 0.09,0.21 0.16,0.41 0.32,0.25 0.46,0.11 0.12,-0.13 0.21,-0.22 0.26,-0.26 0.06,-0.04 0.12,-0.06 0.2,-0.06 0.1,0 0.2,0.02 0.31,0.09 0.1,0.06 0.17,0.13 0.21,0.22z"/>
   <path class="fil5" d="M19.08 21.9c-0.04,-0.03 -0.15,-0.05 -0.13,-0.12 0.09,-0.37 0.38,-0.08 0.52,-0.19 0.05,-0.04 0.02,-0.13 0.04,-0.24 0.01,-0.1 0.05,-0.14 0.19,-0.2 0.19,-0.06 0.16,0.09 0.16,0.14 -0.02,0.14 0,0.27 -0.06,0.37 -0.03,0.06 -0.06,0.12 -0.12,0.17 -0.08,0.06 -0.17,0.1 -0.29,0.11 -0.12,0.02 -0.22,0 -0.31,-0.04z"/>
  </g>
 </g>
</svg>
