<svg width="17" height="15" viewBox="0 0 17 15" fill="none" xmlns="http://www.w3.org/2000/svg">
<path opacity="0.92" fill-rule="evenodd" clip-rule="evenodd" d="M14.3119 4.39C14.3019 4.25 14.2819 4.12 14.2719 3.98C14.8519 3.48 15.3419 2.88 15.7019 2.21C15.1619 2.51 14.5619 2.73 13.9319 2.87C14.5519 2.42 14.9919 1.76 15.1719 1C14.5919 1.41 13.9419 1.74 13.2319 1.94C12.6019 1.38 11.7419 1.06 10.8419 1.14C9.10188 1.29 7.80188 2.83 7.96188 4.58C7.98188 4.83 8.03188 5.07 8.10188 5.29C5.46188 5.39 3.02188 4.33 1.30188 2.56C1.07188 3.05 0.961876 3.61 1.01188 4.19C1.11188 5.29 1.75188 6.21 2.65188 6.7C2.13188 6.73 1.63188 6.63 1.18188 6.43C1.18188 6.44 1.18188 6.46 1.18188 6.47C1.31188 8 2.51188 9.18 3.99188 9.35C3.73188 9.45 3.46188 9.51 3.17188 9.53C2.97188 9.55 2.77188 9.55 2.57188 9.53C3.08188 10.75 4.33188 11.56 5.71188 11.47C4.70188 12.41 3.38188 13.04 1.90188 13.17C1.64188 13.19 1.39188 13.2 1.14188 13.19C7.30188 16.42 15.6319 11.91 14.3119 4.41V4.39Z" stroke="black" stroke-width="0.71" stroke-linecap="round" stroke-linejoin="round"/>
</svg>
